<?xml version="1.0" encoding="UTF-8" standalone="no"?>
<!-- Created with Inkscape (http://www.inkscape.org/) -->

<svg
   width="16"
   height="16"
   viewBox="0 0 4.2333332 4.2333333"
   version="1.1"
   id="svg1"
   inkscape:version="1.3.2 (091e20e, 2023-11-25, custom)"
   sodipodi:docname="favicon.svg"
   xmlns:inkscape="http://www.inkscape.org/namespaces/inkscape"
   xmlns:sodipodi="http://sodipodi.sourceforge.net/DTD/sodipodi-0.dtd"
   xmlns="http://www.w3.org/2000/svg"
   xmlns:svg="http://www.w3.org/2000/svg">
  <sodipodi:namedview
     id="namedview1"
     pagecolor="#505050"
     bordercolor="#ffffff"
     borderopacity="1"
     inkscape:showpageshadow="0"
     inkscape:pageopacity="0"
     inkscape:pagecheckerboard="1"
     inkscape:deskcolor="#505050"
     inkscape:document-units="mm"
     inkscape:zoom="20.952862"
     inkscape:cx="7.8748192"
     inkscape:cy="8.1850394"
     inkscape:window-width="1920"
     inkscape:window-height="991"
     inkscape:window-x="-9"
     inkscape:window-y="-9"
     inkscape:window-maximized="1"
     inkscape:current-layer="layer1" />
  <defs
     id="defs1" />
  <g
     inkscape:label="Layer 1"
     inkscape:groupmode="layer"
     id="layer1">
    <path
       d="M 1.7572566,1.6913833 0.9090027,1.5989306 q 0.1941507,-1.08400838 1.2596685,-1.08400838 0.5362259,0 0.8459426,0.28429216 0.3097166,0.28198082 0.3097166,0.70032952 0,0.1849054 -0.062406,0.3374524 -0.060094,0.1525471 -0.1571696,0.2519338 -0.094764,0.097075 -0.3097167,0.254245 -0.1641036,0.1201885 -0.21033,0.1756602 -0.043915,0.05316 -0.060094,0.1571696 H 1.7572566 q 0,-0.2796695 0.048538,-0.4021694 0.050849,-0.1248112 0.2057074,-0.2634903 0.2334431,-0.2103299 0.2912261,-0.312028 0.057783,-0.1040093 0.057783,-0.2403771 0,-0.1433017 -0.076273,-0.2195752 -0.076274,-0.078585 -0.1895282,-0.078585 -0.3351411,0 -0.3374524,0.5316032 z m 0.8551878,1.183395 V 3.7184095 H 1.7272094 V 2.8747783 Z"
       id="text2"
       style="font-size:4.73358px;line-height:1;font-family:'Franklin Gothic Heavy';-inkscape-font-specification:'Franklin Gothic Heavy, ';text-align:center;text-anchor:middle;fill:#ffffff;stroke:#000000;stroke-width:0.931806;stroke-linecap:round;stroke-linejoin:round"
       aria-label="?" />
    <path
       d="M 1.7572566,1.6913833 0.9090027,1.5989306 q 0.1941507,-1.08400838 1.2596685,-1.08400838 0.5362259,0 0.8459426,0.28429216 0.3097166,0.28198082 0.3097166,0.70032952 0,0.1849054 -0.062406,0.3374524 -0.060094,0.1525471 -0.1571696,0.2519338 -0.094764,0.097075 -0.3097167,0.254245 -0.1641036,0.1201885 -0.21033,0.1756602 -0.043915,0.05316 -0.060094,0.1571696 H 1.7572566 q 0,-0.2796695 0.048538,-0.4021694 0.050849,-0.1248112 0.2057074,-0.2634903 0.2334431,-0.2103299 0.2912261,-0.312028 0.057783,-0.1040093 0.057783,-0.2403771 0,-0.1433017 -0.076273,-0.2195752 -0.076274,-0.078585 -0.1895282,-0.078585 -0.3351411,0 -0.3374524,0.5316032 z m 0.8551878,1.183395 V 3.7184095 H 1.7272094 V 2.8747783 Z"
       id="text1"
       style="font-size:4.73358px;line-height:1;font-family:'Franklin Gothic Heavy';-inkscape-font-specification:'Franklin Gothic Heavy, ';text-align:center;text-anchor:middle;fill:#ffffff;stroke-width:0.931806;stroke-linecap:round;stroke-linejoin:round"
       aria-label="?" />
  </g>
</svg>
