<?xml version="1.0" encoding="UTF-8" standalone="no"?>
<!-- Uploaded to: SVG Repo, www.svgrepo.com, Generator: SVG Repo Mixer Tools -->

<svg
   fill="#000000"
   height="800px"
   width="800px"
   version="1.1"
   id="Capa_1"
   viewBox="0 0 27.963 27.963"
   xml:space="preserve"
   sodipodi:docname="icon_warning2.svg"
   inkscape:version="1.3.2 (091e20e, 2023-11-25, custom)"
   xmlns:inkscape="http://www.inkscape.org/namespaces/inkscape"
   xmlns:sodipodi="http://sodipodi.sourceforge.net/DTD/sodipodi-0.dtd"
   xmlns="http://www.w3.org/2000/svg"
   xmlns:svg="http://www.w3.org/2000/svg"><defs
   id="defs2" /><sodipodi:namedview
   id="namedview2"
   pagecolor="#505050"
   bordercolor="#ffffff"
   borderopacity="1"
   inkscape:showpageshadow="0"
   inkscape:pageopacity="0"
   inkscape:pagecheckerboard="1"
   inkscape:deskcolor="#505050"
   inkscape:zoom="0.459375"
   inkscape:cx="37.006803"
   inkscape:cy="388.57143"
   inkscape:window-width="1920"
   inkscape:window-height="991"
   inkscape:window-x="-9"
   inkscape:window-y="-9"
   inkscape:window-maximized="1"
   inkscape:current-layer="Capa_1" />
<g
   id="g2"
   style="fill:#ffffff">
	<g
   id="c129_exclamation"
   style="fill:#ffffff">
		<path
   d="M13.983,0C6.261,0,0.001,6.259,0.001,13.979c0,7.724,6.26,13.984,13.982,13.984s13.98-6.261,13.98-13.984    C27.963,6.259,21.705,0,13.983,0z M13.983,26.531c-6.933,0-12.55-5.62-12.55-12.553c0-6.93,5.617-12.548,12.55-12.548    c6.931,0,12.549,5.618,12.549,12.548C26.531,20.911,20.913,26.531,13.983,26.531z"
   id="path1"
   style="fill:#ffffff" />
		<polygon
   points="15.579,17.158 16.191,4.579 11.804,4.579 12.414,17.158   "
   id="polygon1"
   style="fill:#ffffff" />
		<path
   d="M13.998,18.546c-1.471,0-2.5,1.029-2.5,2.526c0,1.443,0.999,2.528,2.444,2.528h0.056c1.499,0,2.469-1.085,2.469-2.528    C16.441,19.575,15.468,18.546,13.998,18.546z"
   id="path2"
   style="fill:#ffffff" />
	</g>
	<g
   id="Capa_1_207_"
   style="fill:#ffffff">
	</g>
</g>
</svg>
