<?xml version="1.0" encoding="UTF-8" standalone="no"?>
<!-- Created with Inkscape (http://www.inkscape.org/) -->

<svg
   xmlns:dc="http://purl.org/dc/elements/1.1/"
   xmlns:cc="http://creativecommons.org/ns#"
   xmlns:rdf="http://www.w3.org/1999/02/22-rdf-syntax-ns#"
   xmlns:svg="http://www.w3.org/2000/svg"
   xmlns="http://www.w3.org/2000/svg"
   xmlns:sodipodi="http://sodipodi.sourceforge.net/DTD/sodipodi-0.dtd"
   xmlns:inkscape="http://www.inkscape.org/namespaces/inkscape"
   width="274.17252mm"
   height="77.565903mm"
   viewBox="0 0 274.17252 77.565903"
   version="1.1"
   id="svg8280"
   inkscape:version="0.92.0 r15299"
   sodipodi:docname="speechBubble.svg">
  <defs
     id="defs8274" />
  <sodipodi:namedview
     id="base"
     pagecolor="#ffffff"
     bordercolor="#666666"
     borderopacity="1.0"
     inkscape:pageopacity="0.0"
     inkscape:pageshadow="2"
     inkscape:zoom="0.7"
     inkscape:cx="383.31928"
     inkscape:cy="207.07749"
     inkscape:document-units="mm"
     inkscape:current-layer="layer1"
     showgrid="false"
     inkscape:object-paths="false"
     inkscape:window-width="1920"
     inkscape:window-height="1001"
     inkscape:window-x="-9"
     inkscape:window-y="-9"
     inkscape:window-maximized="1"
     inkscape:pagecheckerboard="true"
     fit-margin-top="0"
     fit-margin-left="0"
     fit-margin-right="0"
     fit-margin-bottom="0" />
  <metadata
     id="metadata8277">
    <rdf:RDF>
      <cc:Work
         rdf:about="">
        <dc:format>image/svg+xml</dc:format>
        <dc:type
           rdf:resource="http://purl.org/dc/dcmitype/StillImage" />
        <dc:title></dc:title>
      </cc:Work>
    </rdf:RDF>
  </metadata>
  <g
     inkscape:label="Layer 1"
     inkscape:groupmode="layer"
     id="layer1"
     transform="translate(-291.13489,-122.55087)">
    <path
       style="fill:none;stroke:#000000;stroke-width:10;stroke-linecap:butt;stroke-linejoin:miter;stroke-miterlimit:4;stroke-dasharray:none;stroke-opacity:1"
       d="m 560.3074,158.68798 v 5.29167"
       id="path8841"
       inkscape:connector-curvature="0" />
    <path
       style="opacity:1;fill:#ffffff;fill-opacity:1;fill-rule:nonzero;stroke:#000000;stroke-width:10;stroke-linecap:round;stroke-linejoin:round;stroke-miterlimit:4;stroke-dasharray:none;stroke-dashoffset:0;stroke-opacity:1;paint-order:normal"
       d="m 296.13489,132.84254 v 62.27423 h 250.43122 v -17.39584 l 13.74129,-13.74128 -13.74129,-13.74128 v -17.39583 z"
       id="path8839"
       inkscape:connector-curvature="0" />
    <path
       id="path8837"
       transform="scale(0.26458333)"
       d="m 1119.25,482.08203 v 235.36719 h 946.5117 v -65.74805 l 51.9356,-51.93555 -51.9356,-51.93554 v -65.74805 z"
       style="opacity:1;fill:#ffffff;fill-opacity:1;fill-rule:nonzero;stroke:#000000;stroke-width:37.79527664;stroke-linecap:round;stroke-linejoin:round;stroke-miterlimit:4;stroke-dasharray:none;stroke-dashoffset:0;stroke-opacity:1;paint-order:normal"
       inkscape:connector-curvature="0" />
    <path
       style="opacity:1;fill:#ffffff;fill-opacity:1;fill-rule:nonzero;stroke:none;stroke-width:18.89763832;stroke-linecap:round;stroke-linejoin:round;stroke-miterlimit:4;stroke-dasharray:none;stroke-dashoffset:0;stroke-opacity:1;paint-order:normal"
       d="m 1119.25,482.08203 v 235.36719 h 946.5117 v -65.74805 l 51.9356,-51.93555 -51.9356,-51.93554 v -65.74805 z"
       transform="scale(0.26458333)"
       id="rect8827"
       inkscape:connector-curvature="0" />
    <g
       aria-label="THANK YOU FOR
SUPPORTING MY WORK!"
       style="font-style:normal;font-variant:normal;font-weight:normal;font-stretch:normal;font-size:7.62123489px;line-height:21.57322884px;font-family:'Bell MT';-inkscape-font-specification:'Bell MT';font-variant-ligatures:normal;font-variant-caps:normal;font-variant-numeric:normal;font-feature-settings:normal;text-align:start;letter-spacing:0px;word-spacing:0px;writing-mode:lr-tb;text-anchor:start;fill:#000000;fill-opacity:1;stroke:none;stroke-width:0.19053087"
       id="text8845">
      <path
         d="m 342.63494,136.78369 h 8.96835 v 3.78333 h -2.59251 v 12.77649 h -3.80814 v -12.77649 h -2.5677 z"
         style="font-style:normal;font-variant:normal;font-weight:normal;font-stretch:normal;font-size:25.40411758px;font-family:'Tw Cen MT Condensed Extra Bold';-inkscape-font-specification:'Tw Cen MT Condensed Extra Bold, ';text-align:center;text-anchor:middle;stroke-width:0.19053087"
         id="path8855" />
      <path
         d="m 353.94771,136.78369 h 3.75852 v 6.14016 h 3.33677 v -6.14016 h 3.75852 v 16.55982 H 361.043 v -6.88442 h -3.33677 v 6.88442 h -3.75852 z"
         style="font-style:normal;font-variant:normal;font-weight:normal;font-stretch:normal;font-size:25.40411758px;font-family:'Tw Cen MT Condensed Extra Bold';-inkscape-font-specification:'Tw Cen MT Condensed Extra Bold, ';text-align:center;text-anchor:middle;stroke-width:0.19053087"
         id="path8857" />
      <path
         d="m 379.92243,153.34351 h -3.90737 l -0.63263,-2.76618 h -3.96939 l -0.65743,2.76618 h -3.83295 l 4.39115,-16.55982 h 4.21748 z m -5.25945,-5.74322 q -0.8435,-3.6965 -1.26524,-7.03327 h -0.0496 q -0.44656,3.43601 -1.25284,7.03327 z"
         style="font-style:normal;font-variant:normal;font-weight:normal;font-stretch:normal;font-size:25.40411758px;font-family:'Tw Cen MT Condensed Extra Bold';-inkscape-font-specification:'Tw Cen MT Condensed Extra Bold, ';text-align:center;text-anchor:middle;stroke-width:0.19053087"
         id="path8859" />
      <path
         d="m 381.8327,136.78369 h 3.79573 l 4.77568,9.55136 -0.13645,-1.78623 v -7.76513 h 3.75852 v 16.55982 h -3.85776 l -4.67644,-9.4025 0.0992,2.05912 v 7.34338 h -3.75852 z"
         style="font-style:normal;font-variant:normal;font-weight:normal;font-stretch:normal;font-size:25.40411758px;font-family:'Tw Cen MT Condensed Extra Bold';-inkscape-font-specification:'Tw Cen MT Condensed Extra Bold, ';text-align:center;text-anchor:middle;stroke-width:0.19053087"
         id="path8861" />
      <path
         d="m 397.61104,136.78369 h 3.75852 v 7.78994 h 0.062 l 3.54764,-7.78994 h 3.94459 l -3.84535,8.45977 3.68409,8.10005 h -4.13065 l -3.20032,-6.88442 h -0.062 v 6.88442 h -3.75852 z"
         style="font-style:normal;font-variant:normal;font-weight:normal;font-stretch:normal;font-size:25.40411758px;font-family:'Tw Cen MT Condensed Extra Bold';-inkscape-font-specification:'Tw Cen MT Condensed Extra Bold, ';text-align:center;text-anchor:middle;stroke-width:0.19053087"
         id="path8863" />
      <path
         d="m 415.48571,136.78369 h 4.21748 q 1.40169,3.57246 2.03432,5.50754 h 0.0496 q 0.63263,-1.9847 2.00951,-5.50754 h 4.31671 l -4.44075,9.06759 v 7.49223 h -3.80814 v -7.49223 z"
         style="font-style:normal;font-variant:normal;font-weight:normal;font-stretch:normal;font-size:25.40411758px;font-family:'Tw Cen MT Condensed Extra Bold';-inkscape-font-specification:'Tw Cen MT Condensed Extra Bold, ';text-align:center;text-anchor:middle;stroke-width:0.19053087"
         id="path8865" />
      <path
         d="m 434.76207,153.75285 q -3.00185,0 -4.5772,-2.29481 -1.57536,-2.30721 -1.57536,-6.64873 0,-4.00661 1.57536,-6.23939 1.58775,-2.24519 4.41595,-2.24519 3.01425,0 4.60201,2.24519 1.60016,2.24519 1.60016,6.41305 0,4.16786 -1.57535,6.47507 -1.56295,2.29481 -4.46557,2.29481 z m -0.13644,-13.6696 q -2.03432,0 -2.03432,4.77568 0,3.07628 0.50858,4.10584 0.52098,1.02956 1.50093,1.02956 1.05437,0 1.61256,-1.02956 0.5706,-1.02956 0.5706,-4.03142 0,-4.8501 -2.15835,-4.8501 z"
         style="font-style:normal;font-variant:normal;font-weight:normal;font-stretch:normal;font-size:25.40411758px;font-family:'Tw Cen MT Condensed Extra Bold';-inkscape-font-specification:'Tw Cen MT Condensed Extra Bold, ';text-align:center;text-anchor:middle;stroke-width:0.19053087"
         id="path8867" />
      <path
         d="m 443.50715,136.78369 h 3.85775 v 11.6601 q 0,0.81868 0.43415,1.30245 0.43416,0.47137 1.16601,0.47137 0.75667,0 1.19082,-0.50858 0.44656,-0.50858 0.44656,-1.40169 v -11.52365 h 3.83294 v 10.86622 q 0,2.22038 -0.583,3.56005 -0.58301,1.33967 -1.72421,1.97229 -1.12879,0.62022 -3.16311,0.62022 -3.00185,0 -4.22988,-1.53814 -1.22803,-1.53814 -1.22803,-5.19743 z"
         style="font-style:normal;font-variant:normal;font-weight:normal;font-stretch:normal;font-size:25.40411758px;font-family:'Tw Cen MT Condensed Extra Bold';-inkscape-font-specification:'Tw Cen MT Condensed Extra Bold, ';text-align:center;text-anchor:middle;stroke-width:0.19053087"
         id="path8869" />
      <path
         d="m 464.09837,136.78369 h 7.60387 v 3.54765 h -3.84535 v 3.02666 h 3.38639 v 3.43601 h -3.38639 v 6.5495 h -3.75852 z"
         style="font-style:normal;font-variant:normal;font-weight:normal;font-stretch:normal;font-size:25.40411758px;font-family:'Tw Cen MT Condensed Extra Bold';-inkscape-font-specification:'Tw Cen MT Condensed Extra Bold, ';text-align:center;text-anchor:middle;stroke-width:0.19053087"
         id="path8871" />
      <path
         d="m 479.5666,153.75285 q -3.00185,0 -4.57721,-2.29481 -1.57535,-2.30721 -1.57535,-6.64873 0,-4.00661 1.57535,-6.23939 1.58776,-2.24519 4.41595,-2.24519 3.01426,0 4.60202,2.24519 1.60016,2.24519 1.60016,6.41305 0,4.16786 -1.57535,6.47507 -1.56295,2.29481 -4.46557,2.29481 z m -0.13645,-13.6696 q -2.03431,0 -2.03431,4.77568 0,3.07628 0.50858,4.10584 0.52098,1.02956 1.50092,1.02956 1.05437,0 1.61257,-1.02956 0.5706,-1.02956 0.5706,-4.03142 0,-4.8501 -2.15836,-4.8501 z"
         style="font-style:normal;font-variant:normal;font-weight:normal;font-stretch:normal;font-size:25.40411758px;font-family:'Tw Cen MT Condensed Extra Bold';-inkscape-font-specification:'Tw Cen MT Condensed Extra Bold, ';text-align:center;text-anchor:middle;stroke-width:0.19053087"
         id="path8873" />
      <path
         d="m 488.41091,136.78369 h 4.37874 q 2.65453,0 4.19267,1.36448 1.53814,1.36448 1.53814,3.7089 0,1.20323 -0.58301,2.33202 -0.583,1.11639 -1.69939,1.68699 l 3.00185,7.46743 h -3.96939 l -3.03907,-7.54185 h -0.062 v 7.54185 h -3.75852 z m 3.75852,3.20033 v 3.93218 q 2.49327,-0.0496 2.49327,-1.74902 0,-1.1536 -0.583,-1.64978 -0.5706,-0.49617 -1.91027,-0.53338 z"
         style="font-style:normal;font-variant:normal;font-weight:normal;font-stretch:normal;font-size:25.40411758px;font-family:'Tw Cen MT Condensed Extra Bold';-inkscape-font-specification:'Tw Cen MT Condensed Extra Bold, ';text-align:center;text-anchor:middle;stroke-width:0.19053087"
         id="path8875" />
      <path
         d="m 303.80931,180.28216 v -3.85776 q 1.78623,1.04197 3.00185,1.04197 0.70705,0 1.11639,-0.38454 0.40935,-0.39694 0.40935,-1.04196 0,-0.49618 -0.33492,-0.93033 -0.32251,-0.43415 -1.1288,-1.05437 -1.94748,-1.48852 -2.82819,-2.76617 -0.8683,-1.29005 -0.8683,-2.86541 0,-2.14595 1.35207,-3.49802 1.35208,-1.35208 3.49803,-1.35208 1.58776,0 3.1507,0.68224 v 3.7089 q -1.67458,-0.91792 -2.71655,-0.91792 -0.69464,0 -1.10399,0.34732 -0.39694,0.33492 -0.39694,0.93033 0,1.04197 1.87306,2.34442 1.11639,0.76907 2.25759,2.17076 1.15361,1.38929 1.15361,3.22514 0,2.14595 -1.50093,3.56005 -1.50092,1.40169 -3.80813,1.40169 -1.57536,0 -3.1259,-0.74426 z"
         style="font-style:normal;font-variant:normal;font-weight:normal;font-stretch:normal;font-size:25.40411758px;font-family:'Tw Cen MT Condensed Extra Bold';-inkscape-font-specification:'Tw Cen MT Condensed Extra Bold, ';text-align:center;text-anchor:middle;stroke-width:0.19053087"
         id="path8877" />
      <path
         d="m 314.82437,164.03245 h 3.85776 v 11.6601 q 0,0.81868 0.43415,1.30245 0.43415,0.47137 1.16601,0.47137 0.75667,0 1.19082,-0.50858 0.44656,-0.50858 0.44656,-1.40169 v -11.52365 h 3.83294 v 10.86622 q 0,2.22038 -0.583,3.56005 -0.58301,1.33967 -1.72421,1.97229 -1.1288,0.62022 -3.16311,0.62022 -3.00185,0 -4.22988,-1.53814 -1.22804,-1.53814 -1.22804,-5.19743 z"
         style="font-style:normal;font-variant:normal;font-weight:normal;font-stretch:normal;font-size:25.40411758px;font-family:'Tw Cen MT Condensed Extra Bold';-inkscape-font-specification:'Tw Cen MT Condensed Extra Bold, ';text-align:center;text-anchor:middle;stroke-width:0.19053087"
         id="path8879" />
      <path
         d="m 329.16381,164.03245 h 4.65163 q 2.45606,0 3.94459,1.4017 1.48852,1.40169 1.48852,3.69649 0,2.41885 -1.51333,3.79574 -1.50093,1.36447 -4.16787,1.36447 h -0.64502 v 6.30142 h -3.75852 z m 3.75852,3.17552 v 3.90737 q 1.26524,-0.0248 1.86065,-0.48377 0.60781,-0.45896 0.60781,-1.45131 0,-1.06677 -0.583,-1.50093 -0.58301,-0.44655 -1.88546,-0.47136 z"
         style="font-style:normal;font-variant:normal;font-weight:normal;font-stretch:normal;font-size:25.40411758px;font-family:'Tw Cen MT Condensed Extra Bold';-inkscape-font-specification:'Tw Cen MT Condensed Extra Bold, ';text-align:center;text-anchor:middle;stroke-width:0.19053087"
         id="path8881" />
      <path
         d="m 342.11395,164.03245 h 4.65164 q 2.45606,0 3.94458,1.4017 1.48852,1.40169 1.48852,3.69649 0,2.41885 -1.51333,3.79574 -1.50092,1.36447 -4.16786,1.36447 h -0.64503 v 6.30142 h -3.75852 z m 3.75852,3.17552 v 3.90737 q 1.26525,-0.0248 1.86066,-0.48377 0.60781,-0.45896 0.60781,-1.45131 0,-1.06677 -0.58301,-1.50093 -0.583,-0.44655 -1.88546,-0.47136 z"
         style="font-style:normal;font-variant:normal;font-weight:normal;font-stretch:normal;font-size:25.40411758px;font-family:'Tw Cen MT Condensed Extra Bold';-inkscape-font-specification:'Tw Cen MT Condensed Extra Bold, ';text-align:center;text-anchor:middle;stroke-width:0.19053087"
         id="path8883" />
      <path
         d="m 360.45999,181.00161 q -3.00185,0 -4.5772,-2.29481 -1.57536,-2.30721 -1.57536,-6.64873 0,-4.00661 1.57536,-6.23939 1.58775,-2.24519 4.41595,-2.24519 3.01426,0 4.60201,2.24519 1.60016,2.24519 1.60016,6.41305 0,4.16786 -1.57535,6.47507 -1.56295,2.29481 -4.46557,2.29481 z m -0.13644,-13.6696 q -2.03432,0 -2.03432,4.77568 0,3.07628 0.50858,4.10584 0.52098,1.02956 1.50093,1.02956 1.05437,0 1.61256,-1.02956 0.5706,-1.02956 0.5706,-4.03142 0,-4.8501 -2.15835,-4.8501 z"
         style="font-style:normal;font-variant:normal;font-weight:normal;font-stretch:normal;font-size:25.40411758px;font-family:'Tw Cen MT Condensed Extra Bold';-inkscape-font-specification:'Tw Cen MT Condensed Extra Bold, ';text-align:center;text-anchor:middle;stroke-width:0.19053087"
         id="path8885" />
      <path
         d="m 369.3043,164.03245 h 4.37874 q 2.65453,0 4.19267,1.36448 1.53814,1.36448 1.53814,3.7089 0,1.20323 -0.583,2.33202 -0.58301,1.11639 -1.6994,1.687 l 3.00185,7.46742 h -3.96939 l -3.03907,-7.54185 h -0.062 v 7.54185 h -3.75852 z m 3.75852,3.20033 v 3.93218 q 2.49328,-0.0496 2.49328,-1.74902 0,-1.1536 -0.58301,-1.64978 -0.5706,-0.49617 -1.91027,-0.53338 z"
         style="font-style:normal;font-variant:normal;font-weight:normal;font-stretch:normal;font-size:25.40411758px;font-family:'Tw Cen MT Condensed Extra Bold';-inkscape-font-specification:'Tw Cen MT Condensed Extra Bold, ';text-align:center;text-anchor:middle;stroke-width:0.19053087"
         id="path8887" />
      <path
         d="m 381.01401,164.03245 h 8.96835 v 3.78333 h -2.59251 v 12.77649 h -3.80814 v -12.77649 h -2.5677 z"
         style="font-style:normal;font-variant:normal;font-weight:normal;font-stretch:normal;font-size:25.40411758px;font-family:'Tw Cen MT Condensed Extra Bold';-inkscape-font-specification:'Tw Cen MT Condensed Extra Bold, ';text-align:center;text-anchor:middle;stroke-width:0.19053087"
         id="path8889" />
      <path
         d="m 392.46323,164.03245 h 3.75852 v 16.55982 h -3.75852 z"
         style="font-style:normal;font-variant:normal;font-weight:normal;font-stretch:normal;font-size:25.40411758px;font-family:'Tw Cen MT Condensed Extra Bold';-inkscape-font-specification:'Tw Cen MT Condensed Extra Bold, ';text-align:center;text-anchor:middle;stroke-width:0.19053087"
         id="path8891" />
      <path
         d="m 399.91825,164.03245 h 3.79573 l 4.77568,9.55136 -0.13645,-1.78623 v -7.76513 h 3.75852 v 16.55982 h -3.85776 l -4.67644,-9.4025 0.0992,2.05912 v 7.34338 h -3.75852 z"
         style="font-style:normal;font-variant:normal;font-weight:normal;font-stretch:normal;font-size:25.40411758px;font-family:'Tw Cen MT Condensed Extra Bold';-inkscape-font-specification:'Tw Cen MT Condensed Extra Bold, ';text-align:center;text-anchor:middle;stroke-width:0.19053087"
         id="path8893" />
      <path
         d="m 427.08378,171.31381 v 2.77857 q 0,3.22514 -1.56295,5.07339 -1.55054,1.83584 -4.25469,1.83584 -3.02666,0 -4.67644,-2.27 -1.64978,-2.2824 -1.64978,-6.49988 0,-4.25469 1.63737,-6.45026 1.64978,-2.20798 4.81289,-2.20798 3.54765,0 5.13541,3.78333 l -3.58486,1.47612 q -0.44656,-0.79388 -0.83109,-1.15361 -0.38454,-0.37213 -1.05438,-0.37213 -1.1412,0 -1.62497,1.20323 -0.47136,1.19081 -0.47136,3.87015 0,2.49328 0.53339,3.67169 0.54579,1.16601 1.7242,1.16601 1.88546,0 1.94749,-2.69174 h -1.74902 v -3.21273 z"
         style="font-style:normal;font-variant:normal;font-weight:normal;font-stretch:normal;font-size:25.40411758px;font-family:'Tw Cen MT Condensed Extra Bold';-inkscape-font-specification:'Tw Cen MT Condensed Extra Bold, ';text-align:center;text-anchor:middle;stroke-width:0.19053087"
         id="path8895" />
      <path
         d="m 437.29256,164.03245 h 4.75087 q 1.01715,5.35868 1.60016,9.21644 l 0.40934,-2.5677 q 0.24809,-1.50093 0.53339,-2.92743 l 0.73186,-3.72131 h 4.8501 l 1.88546,16.55982 h -3.7213 l -1.00476,-11.3872 -2.31961,11.3872 h -2.54289 l -2.43126,-11.41201 -0.96754,11.41201 h -3.56005 z"
         style="font-style:normal;font-variant:normal;font-weight:normal;font-stretch:normal;font-size:25.40411758px;font-family:'Tw Cen MT Condensed Extra Bold';-inkscape-font-specification:'Tw Cen MT Condensed Extra Bold, ';text-align:center;text-anchor:middle;stroke-width:0.19053087"
         id="path8897" />
      <path
         d="m 453.46784,164.03245 h 4.21748 q 1.40169,3.57246 2.03432,5.50754 h 0.0496 q 0.63263,-1.9847 2.00951,-5.50754 h 4.31671 l -4.44075,9.06759 v 7.49223 h -3.80814 v -7.49223 z"
         style="font-style:normal;font-variant:normal;font-weight:normal;font-stretch:normal;font-size:25.40411758px;font-family:'Tw Cen MT Condensed Extra Bold';-inkscape-font-specification:'Tw Cen MT Condensed Extra Bold, ';text-align:center;text-anchor:middle;stroke-width:0.19053087"
         id="path8899" />
      <path
         d="m 472.76902,164.03245 h 3.60966 l 2.13355,9.98551 h 0.0496 l 1.93508,-9.98551 h 3.27475 l 1.95989,9.87387 h 0.0496 l 2.03432,-9.87387 h 3.7089 l -3.96939,16.55982 h -3.3988 l -1.57535,-7.4054 q -0.26049,-1.21563 -0.43415,-2.34443 h -0.0496 q -0.31011,1.92268 -0.44656,2.56771 l -1.56295,7.18212 h -3.34917 z"
         style="font-style:normal;font-variant:normal;font-weight:normal;font-stretch:normal;font-size:25.40411758px;font-family:'Tw Cen MT Condensed Extra Bold';-inkscape-font-specification:'Tw Cen MT Condensed Extra Bold, ';text-align:center;text-anchor:middle;stroke-width:0.19053087"
         id="path8901" />
      <path
         d="m 498.74373,181.00161 q -3.00185,0 -4.57721,-2.29481 -1.57535,-2.30721 -1.57535,-6.64873 0,-4.00661 1.57535,-6.23939 1.58776,-2.24519 4.41595,-2.24519 3.01426,0 4.60202,2.24519 1.60016,2.24519 1.60016,6.41305 0,4.16786 -1.57535,6.47507 -1.56295,2.29481 -4.46557,2.29481 z m -0.13645,-13.6696 q -2.03431,0 -2.03431,4.77568 0,3.07628 0.50858,4.10584 0.52098,1.02956 1.50092,1.02956 1.05437,0 1.61257,-1.02956 0.5706,-1.02956 0.5706,-4.03142 0,-4.8501 -2.15836,-4.8501 z"
         style="font-style:normal;font-variant:normal;font-weight:normal;font-stretch:normal;font-size:25.40411758px;font-family:'Tw Cen MT Condensed Extra Bold';-inkscape-font-specification:'Tw Cen MT Condensed Extra Bold, ';text-align:center;text-anchor:middle;stroke-width:0.19053087"
         id="path8903" />
      <path
         d="m 507.58804,164.03245 h 4.37874 q 2.65453,0 4.19267,1.36448 1.53814,1.36448 1.53814,3.7089 0,1.20323 -0.58301,2.33202 -0.583,1.11639 -1.69939,1.687 l 3.00185,7.46742 h -3.96939 l -3.03907,-7.54185 h -0.062 v 7.54185 h -3.75852 z m 3.75852,3.20033 v 3.93218 q 2.49328,-0.0496 2.49328,-1.74902 0,-1.1536 -0.58301,-1.64978 -0.5706,-0.49617 -1.91027,-0.53338 z"
         style="font-style:normal;font-variant:normal;font-weight:normal;font-stretch:normal;font-size:25.40411758px;font-family:'Tw Cen MT Condensed Extra Bold';-inkscape-font-specification:'Tw Cen MT Condensed Extra Bold, ';text-align:center;text-anchor:middle;stroke-width:0.19053087"
         id="path8905" />
      <path
         d="m 520.53819,164.03245 h 3.75852 v 7.78994 h 0.062 l 3.54765,-7.78994 h 3.94458 l -3.84535,8.45977 3.68409,8.10005 h -4.13065 l -3.20032,-6.88442 h -0.062 v 6.88442 h -3.75852 z"
         style="font-style:normal;font-variant:normal;font-weight:normal;font-stretch:normal;font-size:25.40411758px;font-family:'Tw Cen MT Condensed Extra Bold';-inkscape-font-specification:'Tw Cen MT Condensed Extra Bold, ';text-align:center;text-anchor:middle;stroke-width:0.19053087"
         id="path8907" />
      <path
         d="m 533.9721,164.03245 h 3.60967 v 11.88337 h -3.60967 z m -0.23568,14.93485 q 0,-0.8435 0.60781,-1.43891 0.60781,-0.59541 1.45131,-0.59541 0.8435,0 1.45131,0.60782 0.60781,0.5954 0.60781,1.4265 0,0.8559 -0.60781,1.46371 -0.60781,0.59541 -1.45131,0.59541 -0.8559,0 -1.46371,-0.59541 -0.59541,-0.60781 -0.59541,-1.46371 z"
         style="font-style:normal;font-variant:normal;font-weight:normal;font-stretch:normal;font-size:25.40411758px;font-family:'Tw Cen MT Condensed Extra Bold';-inkscape-font-specification:'Tw Cen MT Condensed Extra Bold, ';text-align:center;text-anchor:middle;stroke-width:0.19053087"
         id="path8909" />
    </g>
    <text
       id="text8853"
       y="306.80185"
       x="420.84439"
       style="font-style:normal;font-variant:normal;font-weight:normal;font-stretch:normal;font-size:7.62123489px;line-height:21.57322884px;font-family:'Bell MT';-inkscape-font-specification:'Bell MT';font-variant-ligatures:normal;font-variant-caps:normal;font-variant-numeric:normal;font-feature-settings:normal;text-align:start;letter-spacing:0px;word-spacing:0px;writing-mode:lr-tb;text-anchor:start;fill:#000000;fill-opacity:1;stroke:none;stroke-width:0.19053087"
       xml:space="preserve"><tspan
         style="font-style:normal;font-variant:normal;font-weight:normal;font-stretch:normal;font-size:25.40411758px;font-family:'Tw Cen MT Condensed Extra Bold';-inkscape-font-specification:'Tw Cen MT Condensed Extra Bold, ';text-align:center;text-anchor:middle;stroke-width:0.19053087"
         y="306.80185"
         x="420.84439"
         id="tspan8849"
         sodipodi:role="line">THANK YOU FOR</tspan><tspan
         id="tspan8851"
         style="font-style:normal;font-variant:normal;font-weight:normal;font-stretch:normal;font-size:25.40411758px;font-family:'Tw Cen MT Condensed Extra Bold';-inkscape-font-specification:'Tw Cen MT Condensed Extra Bold, ';text-align:center;text-anchor:middle;stroke-width:0.19053087"
         y="334.0506"
         x="420.84439"
         sodipodi:role="line">SUPPORTING MY WORK!</tspan></text>
  </g>
</svg>
