<?xml version="1.0" encoding="UTF-8" standalone="no"?>
<!-- Uploaded to: SVG Repo, www.svgrepo.com, Generator: SVG Repo Mixer Tools -->

<svg
   xmlns:dc="http://purl.org/dc/elements/1.1/"
   xmlns:cc="http://creativecommons.org/ns#"
   xmlns:rdf="http://www.w3.org/1999/02/22-rdf-syntax-ns#"
   xmlns:svg="http://www.w3.org/2000/svg"
   xmlns="http://www.w3.org/2000/svg"
   xmlns:sodipodi="http://sodipodi.sourceforge.net/DTD/sodipodi-0.dtd"
   xmlns:inkscape="http://www.inkscape.org/namespaces/inkscape"
   fill="#000000"
   width="800px"
   height="800px"
   viewBox="0 0 32 32"
   version="1.1"
   id="svg6"
   sodipodi:docname="twitter.svg"
   inkscape:version="0.92.0 r15299">
  <metadata
     id="metadata12">
    <rdf:RDF>
      <cc:Work
         rdf:about="">
        <dc:format>image/svg+xml</dc:format>
        <dc:type
           rdf:resource="http://purl.org/dc/dcmitype/StillImage" />
        <dc:title>twitter</dc:title>
      </cc:Work>
    </rdf:RDF>
  </metadata>
  <defs
     id="defs10" />
  <sodipodi:namedview
     pagecolor="#ffffff"
     bordercolor="#666666"
     borderopacity="1"
     objecttolerance="10"
     gridtolerance="10"
     guidetolerance="10"
     inkscape:pageopacity="0"
     inkscape:pageshadow="2"
     inkscape:window-width="1920"
     inkscape:window-height="1001"
     id="namedview8"
     showgrid="false"
     inkscape:zoom="0.295"
     inkscape:cx="-200"
     inkscape:cy="400"
     inkscape:window-x="-9"
     inkscape:window-y="-9"
     inkscape:window-maximized="1"
     inkscape:current-layer="svg6" />
  <title
     id="title2">twitter</title>
  <path
     d="M30.917 6.728c-1.026 0.465-2.217 0.805-3.464 0.961l-0.061 0.006c1.268-0.771 2.222-1.952 2.687-3.354l0.013-0.044c-1.124 0.667-2.431 1.179-3.82 1.464l-0.082 0.014c-1.123-1.199-2.717-1.946-4.485-1.946-3.391 0-6.14 2.749-6.14 6.14 0 0.496 0.059 0.979 0.17 1.441l-0.008-0.042c-5.113-0.254-9.613-2.68-12.629-6.366l-0.025-0.031c-0.522 0.873-0.831 1.926-0.831 3.052 0 0.013 0 0.026 0 0.039v-0.002c0 0.001 0 0.003 0 0.005 0 2.12 1.075 3.989 2.709 5.093l0.022 0.014c-1.026-0.034-1.979-0.315-2.811-0.785l0.031 0.016v0.075c0 0.001 0 0.002 0 0.002 0 2.961 2.095 5.434 4.884 6.014l0.040 0.007c-0.484 0.135-1.040 0.212-1.614 0.212-0.406 0-0.802-0.039-1.186-0.113l0.039 0.006c0.813 2.459 3.068 4.212 5.739 4.264l0.006 0c-2.072 1.638-4.721 2.627-7.602 2.627-0.005 0-0.009 0-0.014 0h0.001c-0.515-0.001-1.022-0.031-1.521-0.089l0.061 0.006c2.663 1.729 5.92 2.757 9.418 2.757 0.005 0 0.009 0 0.014 0h-0.001c0.037 0 0.082 0 0.126 0 9.578 0 17.343-7.765 17.343-17.343 0-0.039-0-0.077-0-0.116l0 0.006c0-0.262 0-0.524-0.019-0.786 1.21-0.878 2.229-1.931 3.042-3.136l0.028-0.044z"
     id="path4"
     style="fill:#ffffff" />
</svg>
