<?xml version="1.0" encoding="UTF-8" standalone="no"?>
<!-- Created with Inkscape (http://www.inkscape.org/) -->

<svg
   width="101.38947mm"
   height="97.273384mm"
   viewBox="0 0 101.38947 97.273384"
   version="1.1"
   id="svg1"
   inkscape:version="1.3.2 (091e20e, 2023-11-25, custom)"
   sodipodi:docname="icon.svg"
   xmlns:inkscape="http://www.inkscape.org/namespaces/inkscape"
   xmlns:sodipodi="http://sodipodi.sourceforge.net/DTD/sodipodi-0.dtd"
   xmlns="http://www.w3.org/2000/svg"
   xmlns:svg="http://www.w3.org/2000/svg">
  <sodipodi:namedview
     id="namedview1"
     pagecolor="#505050"
     bordercolor="#ffffff"
     borderopacity="1"
     inkscape:showpageshadow="0"
     inkscape:pageopacity="0"
     inkscape:pagecheckerboard="1"
     inkscape:deskcolor="#505050"
     inkscape:document-units="mm"
     inkscape:zoom="0.92599442"
     inkscape:cx="279.15935"
     inkscape:cy="208.96454"
     inkscape:window-width="1920"
     inkscape:window-height="991"
     inkscape:window-x="-9"
     inkscape:window-y="-9"
     inkscape:window-maximized="1"
     inkscape:current-layer="layer1" />
  <defs
     id="defs1" />
  <g
     inkscape:label="Layer 1"
     inkscape:groupmode="layer"
     id="layer1"
     transform="translate(-69.320832,-90.752084)">
    <g
       id="g1">
      <g
         id="g137"
         transform="rotate(-28.342094,-1266.1146,209.08544)">
        <circle
           style="opacity:1;fill:#2a2b2b;fill-opacity:1;stroke:none;stroke-width:4.99999;stroke-linecap:round;stroke-linejoin:round;stroke-opacity:1"
           id="path129"
           cx="-8.8897953"
           cy="814.62854"
           r="42.832653" />
        <path
           id="circle130"
           style="opacity:1;fill:#121212;fill-opacity:0.760784;stroke:none;stroke-width:4.99999;stroke-linecap:round;stroke-linejoin:round;stroke-opacity:1"
           d="m -41.674976,842.12379 a 42.832653,42.832653 0 0 0 32.7850794,15.33757 42.832653,42.832653 0 0 0 42.8325276,-42.83305 42.832653,42.832653 0 0 0 -15.31276,-32.8104 42.832653,42.832653 0 0 1 10.021093,27.51874 42.832653,42.832653 0 0 1 -42.832527,42.83304 42.832653,42.832653 0 0 1 -27.493413,-10.0459 z" />
        <path
           id="path130"
           style="opacity:1;fill:#2a2b2b;fill-opacity:1;stroke:none;stroke-width:4.99999;stroke-linecap:round;stroke-linejoin:round;stroke-opacity:1"
           d="m -41.674976,842.12379 a 42.832653,42.832653 0 0 0 27.493413,10.0459 42.832653,42.832653 0 0 0 42.832527,-42.83304 42.832653,42.832653 0 0 0 -10.021093,-27.51874 42.832653,42.832653 0 0 0 -27.5197676,-10.02213 42.832653,42.832653 0 0 0 -42.8325274,42.83253 42.832653,42.832653 0 0 0 10.047448,27.49548 z" />
        <circle
           style="opacity:1;fill:#f2f2f2;fill-opacity:1;stroke:none;stroke-width:4.99999;stroke-linecap:round;stroke-linejoin:round;stroke-opacity:1"
           id="path131"
           cx="-44.301907"
           cy="809.01019"
           r="20.608164" />
        <circle
           style="opacity:1;fill:#000000;fill-opacity:1;stroke:none;stroke-width:1.71568;stroke-linecap:round;stroke-linejoin:round;stroke-opacity:1"
           id="circle131"
           cx="-45.260624"
           cy="809.53558"
           r="7.0714297" />
        <circle
           style="opacity:1;fill:#f2f2f2;fill-opacity:1;stroke:none;stroke-width:4.99999;stroke-linecap:round;stroke-linejoin:round;stroke-opacity:1"
           id="circle132"
           cx="-14.243879"
           cy="-788.6662"
           r="20.608164"
           transform="scale(-1)" />
        <circle
           style="opacity:1;fill:#000000;fill-opacity:1;stroke:none;stroke-width:1.71568;stroke-linecap:round;stroke-linejoin:round;stroke-opacity:1"
           id="circle133"
           cx="-14.426123"
           cy="-787.4624"
           r="7.0714297"
           transform="scale(-1)" />
      </g>
      <g
         id="g138"
         transform="matrix(0.97266398,-0.3981429,0.3981429,0.97266398,-312.81393,-662.20229)">
        <path
           style="font-size:23.0569px;line-height:1;font-family:'Earth\'s Mightiest Bold';-inkscape-font-specification:'Earth\'s Mightiest Bold, ';text-align:center;letter-spacing:1.19281px;text-anchor:middle;fill:#ffffff;stroke:#000000;stroke-width:2.25413;stroke-linecap:round;stroke-linejoin:round"
           d="m 239.96859,790.4242 v 4.61138 q 0.50726,-0.0692 0.94534,-0.3228 0.46113,-0.25362 0.78393,-0.62253 0.34586,-0.39197 0.53031,-0.87617 0.20751,-0.48419 0.20751,-0.96839 0,-0.0461 -0.023,-0.25362 0,-0.20751 -0.0231,-0.39197 -0.0231,-0.11528 -0.0231,-0.23057 0,-0.13834 0,-0.20751 -0.32279,-0.46114 -0.87616,-0.59948 -0.55337,-0.1614 -1.08367,-0.1614 h -0.1614 q -0.11529,0 -0.13834,0.0231 z m -2.6746,7.51655 q 0,-0.34586 0,-1.12979 0.0231,-0.78393 0.0461,-1.77538 0.023,-0.99145 0.0461,-2.07512 0.0461,-1.08368 0.0692,-2.07512 0.0231,-0.99145 0.0461,-1.75233 0.0461,-0.78393 0.0692,-1.15284 0.39196,-0.62254 0.96839,-0.73782 0.59948,-0.13835 1.1759,-0.13835 h 0.39197 q 1.06061,0 1.98289,0.29974 0.94533,0.27669 1.6601,0.85311 0.71476,0.57642 1.12978,1.45258 0.41503,0.87617 0.41503,2.07513 0,0.8531 -0.25363,1.56786 -0.23057,0.71477 -0.64559,1.33731 -0.41503,0.62253 -0.94533,1.15284 -0.53031,0.53031 -1.10674,1.03756 v 0.0922 l 0.29974,0.55336 q 0.0692,0.20752 0.39197,0.78394 0.3228,0.57642 0.69171,1.19896 0.39197,0.62253 0.73782,1.15284 0.34585,0.53031 0.50725,0.69171 0.0922,0.0922 0.0461,0.25363 -0.29974,0.59947 -0.92228,0.87616 -0.59948,0.25362 -1.1759,0.25362 h -0.0922 q -0.29974,0 -0.41502,-0.0231 -0.0922,-0.0461 -0.25363,-0.29974 l -2.05206,-4.10413 v 4.12718 q 0,0.20752 -0.11529,0.34586 -0.11528,0.11528 -0.29974,0.1614 -0.18445,0.0692 -0.39197,0.0922 -0.20751,0.0231 -0.41502,0.0231 h -0.3228 l -0.32279,0.0231 q -0.27669,0 -0.57643,-0.13834 -0.29974,-0.11529 -0.36891,-0.4842 z m 10.64615,-10.39866 0.64559,-0.0692 q 0.57642,-0.0692 1.03756,-0.0922 0.46114,-0.0461 0.87616,-0.0692 0.43809,-0.0461 0.87617,-0.0461 0.46113,-0.0231 0.99144,-0.0231 0.11529,0 0.34586,0.0231 0.25362,0 0.41502,0.0231 h 0.0692 q 0.0922,0 0.1614,0.0692 l 0.34585,0.34585 q 0.0692,0.0692 0.0692,0.1614 v 2.25958 q 0,0.23057 -0.23056,0.23057 h -3.3202 v 3.04351 h 2.44403 q 0.23057,0 0.23057,0.23057 v 2.5132 q 0,0.23057 -0.23057,0.23057 h -2.12123 v 3.78133 h 2.44403 q 0.20751,0 0.20751,0.23057 v 2.23652 q 0,0.23057 -0.20751,0.23057 h -5.30309 q -0.20751,0 -0.20751,-0.23057 v -7.28598 q 0,-1.63704 0.0692,-3.18185 0.0692,-1.56787 0.11529,-3.06657 l 0.0692,-1.3373 z m 15.34976,14.68724 q -0.0461,-0.1614 -0.13834,-0.50725 -0.0922,-0.36891 -0.18445,-0.78394 -0.0922,-0.43808 -0.18446,-0.83004 -0.0692,-0.41503 -0.0922,-0.6456 l -0.0461,-0.0692 -3.06657,-0.23057 q -0.0461,0.11529 -0.0692,0.1614 -0.0231,0.0231 -0.0461,0.13834 l 0.023,-0.0922 q 0,0.0231 -0.023,0.0461 0,0 0,0.0231 -0.0461,0.0922 -0.0922,0.23057 -0.0231,0.11528 -0.0231,0.11528 l 0.0461,-0.0922 -0.23057,0.83005 q -0.1614,0.4842 -0.29974,0.99145 -0.11529,0.48419 -0.1614,0.73782 l -0.36891,0.34585 q -0.0692,0.0692 -0.1614,0.0692 h -2.30569 q -0.11528,0 -0.20751,-0.0692 -0.0692,-0.0922 -0.0231,-0.20751 l 4.44998,-15.47118 q 0.0461,-0.1614 0.20752,-0.1614 h 3.80438 q 0.20752,0 0.20752,0.23057 v 2.09818 q 0,0.23057 -0.20752,0.23057 h -0.43808 q -0.11528,0 -0.16139,0.11528 -0.0231,0.0922 -0.0231,0.20751 v 0.3228 q 0,0.0922 -0.0231,0.0692 0.0461,0.0922 0.0461,0.13834 l 0.0231,0.1614 2.836,12.33544 q 0.0692,0.27669 -0.23057,0.27669 h -2.3518 q -0.0461,0 -0.27668,-0.27669 -0.20752,-0.27668 -0.23057,-0.48419 z m -2.05206,-10.3756 q 0,-0.0231 -0.0231,0.0461 -0.0231,0.0461 -0.11528,0.46114 -0.0922,0.39197 -0.29974,1.29118 -0.18446,0.89922 -0.53031,2.58238 h 1.70621 q -0.0231,0 -0.0231,-0.0922 0,-0.11528 0,-0.1614 l -0.0231,-0.43808 q -0.0461,-0.3228 -0.11529,-0.66865 -0.0692,-0.36891 -0.11528,-0.71476 l -0.0461,-0.23057 q -0.11528,-0.59948 -0.23057,-1.1759 -0.11528,-0.59948 -0.18445,-0.92228 z m 9.95444,8.32354 h 2.9974 q 0.11528,0 0.18445,0.0692 0.0692,0.0692 0.0461,0.18445 l -0.25362,2.21347 q 0,0.20751 -0.20751,0.20751 h -5.28003 q -0.20752,0 -0.20752,-0.23057 V 801.676 q 0,-0.39197 0,-0.85311 0.0231,-0.46114 0.0461,-0.92228 0,-0.16139 0,-0.39196 0.0231,-0.23057 0.0231,-0.34586 0,-0.0231 0,-0.0692 0.023,-0.0461 0.023,-0.0692 v -0.20751 -8.69245 q 0.0922,-0.71477 0.11529,-1.1759 0.0231,-0.4842 0.0461,-0.71477 0,-0.0692 0,-0.13834 0.0231,-0.0692 0.0231,-0.0922 0.0692,-0.23056 0.46114,-0.50725 0.20751,-0.0692 0.59947,-0.11528 0.39197,-0.0461 1.15285,-0.0461 0.23057,0 0.23057,0.20752 z"
           id="text136"
           transform="rotate(12.733452)"
           aria-label="REAL" />
        <path
           style="font-size:23.0569px;line-height:1;font-family:'Earth\'s Mightiest Bold';-inkscape-font-specification:'Earth\'s Mightiest Bold, ';text-align:center;letter-spacing:1.19281px;text-anchor:middle;fill:#ffffff;stroke-width:2.25413;stroke-linecap:round;stroke-linejoin:round"
           d="m 239.96859,790.4242 v 4.61138 q 0.50726,-0.0692 0.94534,-0.3228 0.46113,-0.25362 0.78393,-0.62253 0.34586,-0.39197 0.53031,-0.87617 0.20751,-0.48419 0.20751,-0.96839 0,-0.0461 -0.023,-0.25362 0,-0.20751 -0.0231,-0.39197 -0.0231,-0.11528 -0.0231,-0.23057 0,-0.13834 0,-0.20751 -0.32279,-0.46114 -0.87616,-0.59948 -0.55337,-0.1614 -1.08367,-0.1614 h -0.1614 q -0.11529,0 -0.13834,0.0231 z m -2.6746,7.51655 q 0,-0.34586 0,-1.12979 0.0231,-0.78393 0.0461,-1.77538 0.023,-0.99145 0.0461,-2.07512 0.0461,-1.08368 0.0692,-2.07512 0.0231,-0.99145 0.0461,-1.75233 0.0461,-0.78393 0.0692,-1.15284 0.39196,-0.62254 0.96839,-0.73782 0.59948,-0.13835 1.1759,-0.13835 h 0.39197 q 1.06061,0 1.98289,0.29974 0.94533,0.27669 1.6601,0.85311 0.71476,0.57642 1.12978,1.45258 0.41503,0.87617 0.41503,2.07513 0,0.8531 -0.25363,1.56786 -0.23057,0.71477 -0.64559,1.33731 -0.41503,0.62253 -0.94533,1.15284 -0.53031,0.53031 -1.10674,1.03756 v 0.0922 l 0.29974,0.55336 q 0.0692,0.20752 0.39197,0.78394 0.3228,0.57642 0.69171,1.19896 0.39197,0.62253 0.73782,1.15284 0.34585,0.53031 0.50725,0.69171 0.0922,0.0922 0.0461,0.25363 -0.29974,0.59947 -0.92228,0.87616 -0.59948,0.25362 -1.1759,0.25362 h -0.0922 q -0.29974,0 -0.41502,-0.0231 -0.0922,-0.0461 -0.25363,-0.29974 l -2.05206,-4.10413 v 4.12718 q 0,0.20752 -0.11529,0.34586 -0.11528,0.11528 -0.29974,0.1614 -0.18445,0.0692 -0.39197,0.0922 -0.20751,0.0231 -0.41502,0.0231 h -0.3228 l -0.32279,0.0231 q -0.27669,0 -0.57643,-0.13834 -0.29974,-0.11529 -0.36891,-0.4842 z m 10.64615,-10.39866 0.64559,-0.0692 q 0.57642,-0.0692 1.03756,-0.0922 0.46114,-0.0461 0.87616,-0.0692 0.43809,-0.0461 0.87617,-0.0461 0.46113,-0.0231 0.99144,-0.0231 0.11529,0 0.34586,0.0231 0.25362,0 0.41502,0.0231 h 0.0692 q 0.0922,0 0.1614,0.0692 l 0.34585,0.34585 q 0.0692,0.0692 0.0692,0.1614 v 2.25958 q 0,0.23057 -0.23056,0.23057 h -3.3202 v 3.04351 h 2.44403 q 0.23057,0 0.23057,0.23057 v 2.5132 q 0,0.23057 -0.23057,0.23057 h -2.12123 v 3.78133 h 2.44403 q 0.20751,0 0.20751,0.23057 v 2.23652 q 0,0.23057 -0.20751,0.23057 h -5.30309 q -0.20751,0 -0.20751,-0.23057 v -7.28598 q 0,-1.63704 0.0692,-3.18185 0.0692,-1.56787 0.11529,-3.06657 l 0.0692,-1.3373 z m 15.34976,14.68724 q -0.0461,-0.1614 -0.13834,-0.50725 -0.0922,-0.36891 -0.18445,-0.78394 -0.0922,-0.43808 -0.18446,-0.83004 -0.0692,-0.41503 -0.0922,-0.6456 l -0.0461,-0.0692 -3.06657,-0.23057 q -0.0461,0.11529 -0.0692,0.1614 -0.0231,0.0231 -0.0461,0.13834 l 0.023,-0.0922 q 0,0.0231 -0.023,0.0461 0,0 0,0.0231 -0.0461,0.0922 -0.0922,0.23057 -0.0231,0.11528 -0.0231,0.11528 l 0.0461,-0.0922 -0.23057,0.83005 q -0.1614,0.4842 -0.29974,0.99145 -0.11529,0.48419 -0.1614,0.73782 l -0.36891,0.34585 q -0.0692,0.0692 -0.1614,0.0692 h -2.30569 q -0.11528,0 -0.20751,-0.0692 -0.0692,-0.0922 -0.0231,-0.20751 l 4.44998,-15.47118 q 0.0461,-0.1614 0.20752,-0.1614 h 3.80438 q 0.20752,0 0.20752,0.23057 v 2.09818 q 0,0.23057 -0.20752,0.23057 h -0.43808 q -0.11528,0 -0.16139,0.11528 -0.0231,0.0922 -0.0231,0.20751 v 0.3228 q 0,0.0922 -0.0231,0.0692 0.0461,0.0922 0.0461,0.13834 l 0.0231,0.1614 2.836,12.33544 q 0.0692,0.27669 -0.23057,0.27669 h -2.3518 q -0.0461,0 -0.27668,-0.27669 -0.20752,-0.27668 -0.23057,-0.48419 z m -2.05206,-10.3756 q 0,-0.0231 -0.0231,0.0461 -0.0231,0.0461 -0.11528,0.46114 -0.0922,0.39197 -0.29974,1.29118 -0.18446,0.89922 -0.53031,2.58238 h 1.70621 q -0.0231,0 -0.0231,-0.0922 0,-0.11528 0,-0.1614 l -0.0231,-0.43808 q -0.0461,-0.3228 -0.11529,-0.66865 -0.0692,-0.36891 -0.11528,-0.71476 l -0.0461,-0.23057 q -0.11528,-0.59948 -0.23057,-1.1759 -0.11528,-0.59948 -0.18445,-0.92228 z m 9.95444,8.32354 h 2.9974 q 0.11528,0 0.18445,0.0692 0.0692,0.0692 0.0461,0.18445 l -0.25362,2.21347 q 0,0.20751 -0.20751,0.20751 h -5.28003 q -0.20752,0 -0.20752,-0.23057 V 801.676 q 0,-0.39197 0,-0.85311 0.0231,-0.46114 0.0461,-0.92228 0,-0.16139 0,-0.39196 0.0231,-0.23057 0.0231,-0.34586 0,-0.0231 0,-0.0692 0.023,-0.0461 0.023,-0.0692 v -0.20751 -8.69245 q 0.0922,-0.71477 0.11529,-1.1759 0.0231,-0.4842 0.0461,-0.71477 0,-0.0692 0,-0.13834 0.0231,-0.0692 0.0231,-0.0922 0.0692,-0.23056 0.46114,-0.50725 0.20751,-0.0692 0.59947,-0.11528 0.39197,-0.0461 1.15285,-0.0461 0.23057,0 0.23057,0.20752 z"
           id="text133"
           transform="rotate(12.733452)"
           aria-label="REAL" />
      </g>
      <g
         id="g139"
         transform="translate(121.75825,-672.29753)">
        <path
           style="font-size:31.5385px;line-height:1;font-family:'Earth\'s Mightiest Bold';-inkscape-font-specification:'Earth\'s Mightiest Bold, ';text-align:center;letter-spacing:1.63159px;text-anchor:middle;fill:#ffffff;stroke:#000000;stroke-width:3.08333;stroke-linecap:round;stroke-linejoin:round"
           d="m -124.87264,813.52174 q 0.12616,1.41924 0.15769,2.17616 0.0631,0.75692 0.0631,1.00923 0,0.66231 -2.87,0.69385 v 15.4854 q 0,0.72539 -0.18923,1.23 -0.0631,0.18923 -0.50462,0.31539 -0.41,0.0946 -1.35615,0.12615 -0.0631,0 -0.41,0 -0.34693,-0.0315 -0.88308,-0.15769 -0.0631,0 -0.12616,-0.0631 -0.0631,-0.0631 -0.0946,-0.0946 -0.18923,-0.28385 -0.18923,-3.18539 v -13.56156 h -2.64924 q -0.31538,0 -0.31538,-0.31538 v -3.12231 q 0,-0.12616 0.0946,-0.22077 l 0.50462,-0.47308 q 0.0946,-0.0946 0.22077,-0.0946 l 0.50461,-0.0315 q 0.0946,-0.0315 0.22077,-0.0315 0.12616,0 0.28385,0 h 2.33385 q 0.25231,0 0.34692,0.0315 h 0.1577 q 0.44153,0.0315 0.88307,0.0631 0.44154,0 0.91462,0 0.59923,0 1.16692,0 0.59924,-0.0315 1.32462,-0.0946 0.22077,0 0.28385,0.15769 z m 11.78699,20.18464 q -0.0631,-0.22077 -0.18923,-0.69384 -0.12615,-0.50462 -0.25231,-1.07231 -0.12615,-0.59923 -0.25231,-1.13539 -0.0946,-0.56769 -0.12615,-0.88308 l -0.0631,-0.0946 -4.19462,-0.31539 q -0.0631,0.15769 -0.0946,0.22077 -0.0315,0.0315 -0.0631,0.18923 l 0.0315,-0.12615 q 0,0.0315 -0.0315,0.0631 0,0 0,0.0315 -0.0631,0.12616 -0.12615,0.31539 -0.0315,0.15769 -0.0315,0.15769 l 0.0631,-0.12615 -0.31538,1.13538 q -0.22077,0.66231 -0.41,1.35616 -0.15769,0.66231 -0.22077,1.00923 l -0.50462,0.47308 q -0.0946,0.0946 -0.22077,0.0946 h -3.15385 q -0.15769,0 -0.28384,-0.0946 -0.0946,-0.12616 -0.0315,-0.28385 l 6.08693,-21.16233 q 0.0631,-0.22077 0.28385,-0.22077 h 5.20385 q 0.28385,0 0.28385,0.31538 v 2.87001 q 0,0.31538 -0.28385,0.31538 h -0.59923 q -0.1577,0 -0.22077,0.1577 -0.0315,0.12615 -0.0315,0.28384 v 0.44154 q 0,0.12615 -0.0315,0.0946 0.0631,0.12615 0.0631,0.18923 l 0.0315,0.22077 3.87923,16.87309 q 0.0946,0.37847 -0.31538,0.37847 h -3.21693 q -0.0631,0 -0.37846,-0.37847 -0.28385,-0.37846 -0.31539,-0.6623 z m -2.80693,-14.19232 q 0,-0.0315 -0.0315,0.0631 -0.0315,0.0631 -0.1577,0.63077 -0.12615,0.53616 -0.41,1.76616 -0.2523,1.23 -0.72538,3.53231 h 2.33385 q -0.0315,0 -0.0315,-0.12615 0,-0.15769 0,-0.22077 l -0.0315,-0.59923 q -0.0631,-0.44154 -0.15769,-0.91462 -0.0946,-0.50461 -0.1577,-0.97769 l -0.0631,-0.31539 q -0.15769,-0.82 -0.31539,-1.60846 -0.15769,-0.82 -0.25231,-1.26154 z m 10.36777,10.88078 q 0.44154,0 0.82,0.0631 0.37846,0.0631 0.72539,0.15769 h -0.0315 q 0.37846,0.0946 0.72538,0.15769 0.34693,0.0631 0.66231,0.0631 1.00923,0 1.54539,-0.53616 0.53615,-0.53615 0.53615,-1.51384 0,-0.66231 -0.22077,-1.26154 -0.22077,-0.59923 -0.59923,-1.13539 -0.34692,-0.53615 -0.82,-1.00923 -0.44154,-0.47308 -0.94615,-0.94616 -0.5677,-0.56769 -1.16693,-1.13538 -0.56769,-0.59923 -1.04077,-1.29308 -0.44154,-0.69385 -0.72539,-1.51385 -0.28384,-0.82 -0.28384,-1.86077 0,-1.38769 0.50461,-2.49154 0.53616,-1.10385 1.3877,-1.86077 0.88308,-0.75693 2.01846,-1.16693 1.13539,-0.41 2.39693,-0.41 h 0.883076 q 0.662309,0 1.230002,0.18923 0.599231,0.18923 0.599231,0.9777 l -0.03154,0.53615 q 0,0.0946 -0.06308,0.41 -0.06308,0.31539 -0.157693,0.69385 -0.09462,0.34692 -0.189231,0.69385 -0.06308,0.31538 -0.09462,0.44153 -0.06308,0.18924 -0.283847,0.18924 -0.662308,0.0315 -1.419232,0.15769 -0.725386,0.0946 -1.356156,0.37846 -0.59923,0.25231 -1.00923,0.72539 -0.37846,0.44153 -0.37846,1.19846 v 0.28384 q 0,0.31539 0.0315,0.5677 0.0315,0.22077 0.25231,0.47308 l 0.47308,0.41 q 0.94616,0.82 1.89231,1.70307 0.946155,0.88308 1.734618,1.92385 0.788462,1.00924 1.26154,2.17616 0.504616,1.13539 0.504616,2.49154 0,1.3877 -0.504616,2.46 -0.473078,1.04077 -1.293079,1.76616 -0.820001,0.69385 -1.955387,1.04077 -1.103852,0.37846 -2.365392,0.37846 -2.08154,0 -3.05923,-0.82 -0.97769,-0.85154 -0.97769,-2.90154 v -0.53615 q 0,-0.31539 0.31538,-0.31539 z"
           id="text138"
           transform="rotate(-9.5274243)"
           aria-label="TAS" />
        <path
           style="font-size:31.5385px;line-height:1;font-family:'Earth\'s Mightiest Bold';-inkscape-font-specification:'Earth\'s Mightiest Bold, ';text-align:center;letter-spacing:1.63159px;text-anchor:middle;fill:#ffffff;stroke-width:3.08333;stroke-linecap:round;stroke-linejoin:round"
           d="m -124.87264,813.52174 q 0.12616,1.41924 0.15769,2.17616 0.0631,0.75692 0.0631,1.00923 0,0.66231 -2.87,0.69385 v 15.4854 q 0,0.72539 -0.18923,1.23 -0.0631,0.18923 -0.50462,0.31539 -0.41,0.0946 -1.35615,0.12615 -0.0631,0 -0.41,0 -0.34693,-0.0315 -0.88308,-0.15769 -0.0631,0 -0.12616,-0.0631 -0.0631,-0.0631 -0.0946,-0.0946 -0.18923,-0.28385 -0.18923,-3.18539 v -13.56156 h -2.64924 q -0.31538,0 -0.31538,-0.31538 v -3.12231 q 0,-0.12616 0.0946,-0.22077 l 0.50462,-0.47308 q 0.0946,-0.0946 0.22077,-0.0946 l 0.50461,-0.0315 q 0.0946,-0.0315 0.22077,-0.0315 0.12616,0 0.28385,0 h 2.33385 q 0.25231,0 0.34692,0.0315 h 0.1577 q 0.44153,0.0315 0.88307,0.0631 0.44154,0 0.91462,0 0.59923,0 1.16692,0 0.59924,-0.0315 1.32462,-0.0946 0.22077,0 0.28385,0.15769 z m 11.78699,20.18464 q -0.0631,-0.22077 -0.18923,-0.69384 -0.12615,-0.50462 -0.25231,-1.07231 -0.12615,-0.59923 -0.25231,-1.13539 -0.0946,-0.56769 -0.12615,-0.88308 l -0.0631,-0.0946 -4.19462,-0.31539 q -0.0631,0.15769 -0.0946,0.22077 -0.0315,0.0315 -0.0631,0.18923 l 0.0315,-0.12615 q 0,0.0315 -0.0315,0.0631 0,0 0,0.0315 -0.0631,0.12616 -0.12615,0.31539 -0.0315,0.15769 -0.0315,0.15769 l 0.0631,-0.12615 -0.31538,1.13538 q -0.22077,0.66231 -0.41,1.35616 -0.15769,0.66231 -0.22077,1.00923 l -0.50462,0.47308 q -0.0946,0.0946 -0.22077,0.0946 h -3.15385 q -0.15769,0 -0.28384,-0.0946 -0.0946,-0.12616 -0.0315,-0.28385 l 6.08693,-21.16233 q 0.0631,-0.22077 0.28385,-0.22077 h 5.20385 q 0.28385,0 0.28385,0.31538 v 2.87001 q 0,0.31538 -0.28385,0.31538 h -0.59923 q -0.1577,0 -0.22077,0.1577 -0.0315,0.12615 -0.0315,0.28384 v 0.44154 q 0,0.12615 -0.0315,0.0946 0.0631,0.12615 0.0631,0.18923 l 0.0315,0.22077 3.87923,16.87309 q 0.0946,0.37847 -0.31538,0.37847 h -3.21693 q -0.0631,0 -0.37846,-0.37847 -0.28385,-0.37846 -0.31539,-0.6623 z m -2.80693,-14.19232 q 0,-0.0315 -0.0315,0.0631 -0.0315,0.0631 -0.1577,0.63077 -0.12615,0.53616 -0.41,1.76616 -0.2523,1.23 -0.72538,3.53231 h 2.33385 q -0.0315,0 -0.0315,-0.12615 0,-0.15769 0,-0.22077 l -0.0315,-0.59923 q -0.0631,-0.44154 -0.15769,-0.91462 -0.0946,-0.50461 -0.1577,-0.97769 l -0.0631,-0.31539 q -0.15769,-0.82 -0.31539,-1.60846 -0.15769,-0.82 -0.25231,-1.26154 z m 10.36777,10.88078 q 0.44154,0 0.82,0.0631 0.37846,0.0631 0.72539,0.15769 h -0.0315 q 0.37846,0.0946 0.72538,0.15769 0.34693,0.0631 0.66231,0.0631 1.00923,0 1.54539,-0.53616 0.53615,-0.53615 0.53615,-1.51384 0,-0.66231 -0.22077,-1.26154 -0.22077,-0.59923 -0.59923,-1.13539 -0.34692,-0.53615 -0.82,-1.00923 -0.44154,-0.47308 -0.94615,-0.94616 -0.5677,-0.56769 -1.16693,-1.13538 -0.56769,-0.59923 -1.04077,-1.29308 -0.44154,-0.69385 -0.72539,-1.51385 -0.28384,-0.82 -0.28384,-1.86077 0,-1.38769 0.50461,-2.49154 0.53616,-1.10385 1.3877,-1.86077 0.88308,-0.75693 2.01846,-1.16693 1.13539,-0.41 2.39693,-0.41 h 0.883076 q 0.662309,0 1.230002,0.18923 0.599231,0.18923 0.599231,0.9777 l -0.03154,0.53615 q 0,0.0946 -0.06308,0.41 -0.06308,0.31539 -0.157693,0.69385 -0.09462,0.34692 -0.189231,0.69385 -0.06308,0.31538 -0.09462,0.44153 -0.06308,0.18924 -0.283847,0.18924 -0.662308,0.0315 -1.419232,0.15769 -0.725386,0.0946 -1.356156,0.37846 -0.59923,0.25231 -1.00923,0.72539 -0.37846,0.44153 -0.37846,1.19846 v 0.28384 q 0,0.31539 0.0315,0.5677 0.0315,0.22077 0.25231,0.47308 l 0.47308,0.41 q 0.94616,0.82 1.89231,1.70307 0.946155,0.88308 1.734618,1.92385 0.788462,1.00924 1.26154,2.17616 0.504616,1.13539 0.504616,2.49154 0,1.3877 -0.504616,2.46 -0.473078,1.04077 -1.293079,1.76616 -0.820001,0.69385 -1.955387,1.04077 -1.103852,0.37846 -2.365392,0.37846 -2.08154,0 -3.05923,-0.82 -0.97769,-0.85154 -0.97769,-2.90154 v -0.53615 q 0,-0.31539 0.31538,-0.31539 z"
           id="text139"
           transform="rotate(-9.5274243)"
           aria-label="TAS" />
      </g>
    </g>
  </g>
</svg>
