<?xml version="1.0" encoding="UTF-8" standalone="no"?>
<!-- Created with Inkscape (http://www.inkscape.org/) -->

<svg
   xmlns:dc="http://purl.org/dc/elements/1.1/"
   xmlns:cc="http://creativecommons.org/ns#"
   xmlns:rdf="http://www.w3.org/1999/02/22-rdf-syntax-ns#"
   xmlns:svg="http://www.w3.org/2000/svg"
   xmlns="http://www.w3.org/2000/svg"
   xmlns:sodipodi="http://sodipodi.sourceforge.net/DTD/sodipodi-0.dtd"
   xmlns:inkscape="http://www.inkscape.org/namespaces/inkscape"
   width="21.769638mm"
   height="20.818804mm"
   viewBox="0 0 21.769638 20.818804"
   version="1.1"
   id="svg7488"
   inkscape:version="0.92.0 r15299"
   sodipodi:docname="bitowskyThanks.svg">
  <defs
     id="defs7482" />
  <sodipodi:namedview
     id="base"
     pagecolor="#ffffff"
     bordercolor="#666666"
     borderopacity="1.0"
     inkscape:pageopacity="0.0"
     inkscape:pageshadow="2"
     inkscape:zoom="7.9195959"
     inkscape:cx="37.05119"
     inkscape:cy="32.372966"
     inkscape:document-units="mm"
     inkscape:current-layer="layer1"
     showgrid="false"
     fit-margin-top="0"
     fit-margin-left="0"
     fit-margin-right="0"
     fit-margin-bottom="0"
     inkscape:window-width="1920"
     inkscape:window-height="1001"
     inkscape:window-x="-9"
     inkscape:window-y="-9"
     inkscape:window-maximized="1" />
  <metadata
     id="metadata7485">
    <rdf:RDF>
      <cc:Work
         rdf:about="">
        <dc:format>image/svg+xml</dc:format>
        <dc:type
           rdf:resource="http://purl.org/dc/dcmitype/StillImage" />
        <dc:title></dc:title>
      </cc:Work>
    </rdf:RDF>
  </metadata>
  <g
     inkscape:label="Layer 1"
     inkscape:groupmode="layer"
     id="layer1"
     transform="translate(-20.865184,-139.93584)">
    <g
       id="g8214">
      <g
         id="g8184">
        <path
           style="fill:#000000;fill-opacity:1;stroke:#000000;stroke-width:0.5;stroke-linecap:round;stroke-linejoin:round;stroke-miterlimit:4;stroke-dasharray:none;stroke-opacity:1"
           d="m 37.335796,146.20227 c 0.003,0.31003 0.0037,3.31682 4.5e-4,3.63278 -0.04551,4.45283 -0.866662,9.35235 -6.882392,10.66959 -5.812241,-1.28817 -6.80109,-6.10463 -6.87868,-10.5278 -0.006,-0.3495 -0.007,-3.38962 -0.003,-3.73227"
           id="path8873"
           inkscape:connector-curvature="0"
           sodipodi:nodetypes="cscsc" />
        <circle
           r="1.8071986"
           cy="152.78967"
           cx="27.78978"
           id="circle8875"
           style="opacity:1;fill:#000000;fill-opacity:1;fill-rule:nonzero;stroke:#000000;stroke-width:0.5;stroke-linecap:round;stroke-linejoin:round;stroke-miterlimit:4;stroke-dasharray:none;stroke-dashoffset:0;stroke-opacity:1;paint-order:normal" />
        <circle
           style="opacity:1;fill:#000000;fill-opacity:1;fill-rule:nonzero;stroke:#000000;stroke-width:0.5;stroke-linecap:round;stroke-linejoin:round;stroke-miterlimit:4;stroke-dasharray:none;stroke-dashoffset:0;stroke-opacity:1;paint-order:normal"
           id="circle8877"
           cx="33.118469"
           cy="152.78967"
           r="1.8071986" />
        <path
           style="opacity:1;fill:#000000;fill-opacity:1;fill-rule:nonzero;stroke:#000000;stroke-width:0.5;stroke-linecap:round;stroke-linejoin:round;stroke-miterlimit:4;stroke-dasharray:none;stroke-dashoffset:0;stroke-opacity:1;paint-order:normal"
           d="m 36.389783,151.58881 v -2.08561 c 0,-2.90463 -1.559203,-5.24296 -4.463831,-5.24296 H 28.80643 c -2.90463,0 -4.46338,2.33833 -4.46338,5.24296 v 2.0856 l -1.87874,-0.0174 v -3.24579 c 0,-3.37393 2.71614,-6.09007 6.09007,-6.09007 h 3.62355 c 3.37393,0 6.090587,2.71614 6.090587,6.09007 v 3.24579 z"
           id="path8881"
           inkscape:connector-curvature="0"
           sodipodi:nodetypes="cssssccsssscc" />
        <g
           style="fill:#000000;stroke:#000000"
           id="g8891"
           transform="translate(129.08416,66.894755)">
          <path
             style="opacity:1;fill:#000000;fill-opacity:1;fill-rule:nonzero;stroke:#000000;stroke-width:1.88976383;stroke-linecap:round;stroke-linejoin:round;stroke-miterlimit:4;stroke-dasharray:none;stroke-dashoffset:0;stroke-opacity:1;paint-order:normal"
             d="m -402.5,315.49023 c -2.01341,0.0862 -3.61719,1.70684 -3.61719,3.74219 v 12.04883 c 0,2.03537 1.60376,3.65799 3.61719,3.74414 z"
             id="path8883"
             transform="scale(0.26458333)"
             inkscape:connector-curvature="0" />
          <path
             style="opacity:1;fill:#000000;fill-opacity:1;fill-rule:nonzero;stroke:#000000;stroke-width:1.88976383;stroke-linecap:round;stroke-linejoin:round;stroke-miterlimit:4;stroke-dasharray:none;stroke-dashoffset:0;stroke-opacity:1;paint-order:normal"
             d="m -402.5,315.49023 v 19.53516 c 0.0549,0.002 0.10074,0.0312 0.15625,0.0312 1.62331,0.0261 3.24919,0.0156 4.88281,0.0156 0.86026,0 1.55274,-0.69244 1.55274,-1.55274 v -16.52734 c 0,-0.86031 -0.69248,-1.55274 -1.55274,-1.55274 -1.60029,-0.002 -3.34137,-0.006 -4.88281,0.0195 -0.0555,0 -0.10132,0.0289 -0.15625,0.0312 z"
             id="path8885"
             transform="scale(0.26458333)"
             inkscape:connector-curvature="0" />
          <path
             style="opacity:1;fill:#000000;fill-opacity:1;fill-rule:nonzero;stroke:#000000;stroke-width:1.88976383;stroke-linecap:round;stroke-linejoin:round;stroke-miterlimit:4;stroke-dasharray:none;stroke-dashoffset:0;stroke-opacity:1;paint-order:normal"
             d="m -343.78516,315.47656 c -0.0303,-7.1e-4 -0.0554,-0.0176 -0.0859,-0.0176 -1.54145,-0.0253 -3.28253,-0.0212 -4.88282,-0.0195 -0.86025,0 -1.55273,0.69243 -1.55273,1.55274 v 16.52734 c 0,0.8603 0.69248,1.55274 1.55273,1.55274 1.63363,0 3.25951,0.0104 4.88282,-0.0156 0.0305,0 0.0556,-0.0169 0.0859,-0.0176 z"
             id="path8887"
             transform="scale(0.26458333)"
             inkscape:connector-curvature="0" />
          <path
             style="opacity:1;fill:#000000;fill-opacity:1;fill-rule:nonzero;stroke:#000000;stroke-width:1.88976383;stroke-linecap:round;stroke-linejoin:round;stroke-miterlimit:4;stroke-dasharray:none;stroke-dashoffset:0;stroke-opacity:1;paint-order:normal"
             d="m -343.78516,315.47656 v 19.5625 c 2.04837,-0.0482 3.68946,-1.69745 3.68946,-3.75781 v -12.04883 c 0,-2.06035 -1.6411,-3.70768 -3.68946,-3.75586 z"
             id="path8889"
             transform="scale(0.26458333)"
             inkscape:connector-curvature="0" />
        </g>
        <path
           style="fill:#000000;fill-opacity:1;stroke:#000000;stroke-width:0.5;stroke-linecap:round;stroke-linejoin:round;stroke-miterlimit:4;stroke-dasharray:none;stroke-opacity:1"
           d="m 27.56662,144.65151 c -0.11196,-0.4027 -4.46737,-1.20985 -5.38278,2.52919 -0.11434,0.467 -1.06866,0.96872 -1.06866,0.96872 0.95471,4.05392 5.2739,3.30514 6.98977,0.81279"
           id="path8895"
           inkscape:connector-curvature="0"
           sodipodi:nodetypes="cscc" />
        <path
           style="fill:#000000;fill-opacity:1;stroke:#000000;stroke-width:0.5;stroke-linecap:round;stroke-linejoin:round;stroke-miterlimit:4;stroke-dasharray:none;stroke-opacity:1"
           d="m 27.136,144.74847 c 1.78332,-3.90778 10.246634,-4.0707 10.769538,0.84663 0.332426,3.1261 1.33647,4.19652 1.974462,4.06182 -1.217028,3.6748 -9.587339,4.49472 -12.35371,-0.70384"
           id="path8897"
           inkscape:connector-curvature="0"
           sodipodi:nodetypes="cscc" />
        <path
           sodipodi:nodetypes="ccc"
           inkscape:connector-curvature="0"
           id="path8901"
           d="m 27.787073,156.54141 c 0.178181,0.38589 0.55313,0.78741 1.76864,0.78636 h 2.731154"
           style="fill:#000000;stroke:#000000;stroke-width:0.5;stroke-linecap:round;stroke-linejoin:round;stroke-miterlimit:4;stroke-dasharray:none;stroke-opacity:1" />
        <path
           style="display:inline;fill:#f7ceb8;fill-opacity:1;stroke:#000000;stroke-width:0.5;stroke-linecap:round;stroke-linejoin:round;stroke-miterlimit:4;stroke-dasharray:none;stroke-opacity:1"
           d="m 37.335788,145.67312 c 0.003,0.31002 0.0037,3.31682 4.5e-4,3.63278 -0.04551,4.45283 -0.866662,9.35235 -6.882391,10.66959 -5.81224,-1.28817 -6.801086,-6.10464 -6.878676,-10.5278 -0.006,-0.3495 -0.007,-3.38962 -0.003,-3.73228"
           id="path8905"
           inkscape:connector-curvature="0"
           sodipodi:nodetypes="cscsc"
           inkscape:export-xdpi="900.39758"
           inkscape:export-ydpi="900.39758" />
        <path
           style="opacity:1;fill:#de2d48;fill-opacity:1;fill-rule:nonzero;stroke:#000000;stroke-width:0.5;stroke-linecap:round;stroke-linejoin:round;stroke-miterlimit:4;stroke-dasharray:none;stroke-dashoffset:0;stroke-opacity:1;paint-order:normal"
           d="m 36.389783,151.05965 v -2.08561 c 0,-2.90463 -1.559203,-5.24296 -4.463831,-5.24296 H 28.80643 c -2.90463,0 -4.46338,2.33833 -4.46338,5.24296 v 2.08561 l -1.87874,-0.0174 v -3.2458 c 0,-3.37393 2.71614,-6.09006 6.09007,-6.09006 h 3.62355 c 3.37393,0 6.090587,2.71613 6.090587,6.09006 v 3.2458 z"
           id="path8913"
           inkscape:connector-curvature="0"
           sodipodi:nodetypes="cssssccsssscc" />
        <path
           inkscape:connector-curvature="0"
           id="path8915"
           d="m 22.58937,149.83906 c -0.532715,0.0228 -0.957049,0.4516 -0.957049,0.99012 v 3.18792 c 0,0.53852 0.424329,0.96784 0.957049,0.99064 z"
           style="opacity:1;fill:#de2d48;fill-opacity:1;fill-rule:nonzero;stroke:#000000;stroke-width:0.5;stroke-linecap:round;stroke-linejoin:round;stroke-miterlimit:4;stroke-dasharray:none;stroke-dashoffset:0;stroke-opacity:1;paint-order:normal" />
        <path
           inkscape:connector-curvature="0"
           id="path8917"
           d="m 22.58937,149.83906 v 5.16868 c 0.01453,5.2e-4 0.02665,0.008 0.04134,0.008 0.429501,0.007 0.859681,0.004 1.29191,0.004 0.22761,0 0.410829,-0.18321 0.410829,-0.41083 v -4.37286 c 0,-0.22762 -0.183219,-0.41083 -0.410829,-0.41083 -0.42341,-5.3e-4 -0.884071,-0.002 -1.29191,0.005 -0.01469,0 -0.02681,0.008 -0.04134,0.008 z"
           style="opacity:1;fill:#5d5d5d;fill-opacity:1;fill-rule:nonzero;stroke:#000000;stroke-width:0.5;stroke-linecap:round;stroke-linejoin:round;stroke-miterlimit:4;stroke-dasharray:none;stroke-dashoffset:0;stroke-opacity:1;paint-order:normal" />
        <path
           inkscape:connector-curvature="0"
           id="path8919"
           d="m 38.124338,149.83544 c -0.008,-1.9e-4 -0.01466,-0.005 -0.02273,-0.005 -0.407842,-0.007 -0.868503,-0.006 -1.291913,-0.005 -0.227608,0 -0.410826,0.18321 -0.410826,0.41083 v 4.37286 c 0,0.22762 0.183218,0.41083 0.410826,0.41083 0.432231,0 0.862412,0.003 1.291913,-0.004 0.0081,0 0.01471,-0.004 0.02273,-0.005 z"
           style="opacity:1;fill:#5d5d5d;fill-opacity:1;fill-rule:nonzero;stroke:#000000;stroke-width:0.5;stroke-linecap:round;stroke-linejoin:round;stroke-miterlimit:4;stroke-dasharray:none;stroke-dashoffset:0;stroke-opacity:1;paint-order:normal" />
        <path
           inkscape:connector-curvature="0"
           id="path8921"
           d="m 38.124338,149.83544 v 5.17591 c 0.541964,-0.0127 0.976169,-0.44911 0.976169,-0.99425 v -3.18792 c 0,-0.54514 -0.434208,-0.98099 -0.976169,-0.99374 z"
           style="opacity:1;fill:#de2d48;fill-opacity:1;fill-rule:nonzero;stroke:#000000;stroke-width:0.5;stroke-linecap:round;stroke-linejoin:round;stroke-miterlimit:4;stroke-dasharray:none;stroke-dashoffset:0;stroke-opacity:1;paint-order:normal" />
        <path
           d="m 27.721971,150.56495 a 2.0423567,2.0423567 0 0 0 -2.002792,1.638 0.24213915,0.24213915 0 0 0 -0.117904,0.46608 l 3.693018,1.365 a 0.23739132,0.23739132 0 0 0 0.08388,0.015 v 0 a 0.23739132,0.23739132 0 0 0 0.131356,-0.44471 1.9711393,1.9711393 0 0 0 0.255592,-1.001 2.043148,2.043148 0 0 0 -2.043148,-2.0384 z"
           id="path9743"
           inkscape:connector-curvature="0"
           style="fill:#020101;stroke-width:0.07913044" />
        <path
           d="m 35.447467,152.36121 a 0.23739132,0.23739132 0 0 0 -0.260339,-0.15826 2.043148,2.043148 0 0 0 -4.045939,0.4004 1.978261,1.978261 0 0 0 0.255591,1.00179 0.24213915,0.24213915 0 0 0 0.131357,0.44392 0.23739132,0.23739132 0 0 0 0.08388,-0.015 l 3.693018,-1.365 a 0.24134784,0.24134784 0 0 0 0.142434,-0.30782 z"
           id="path9745"
           inkscape:connector-curvature="0"
           style="fill:#020101;stroke-width:0.07913044" />
        <path
           sodipodi:nodetypes="cscc"
           inkscape:connector-curvature="0"
           id="path8927"
           d="m 27.56662,144.12236 c -0.11196,-0.4027 -4.46737,-1.20985 -5.38278,2.52919 -0.11434,0.46699 -1.06866,0.96872 -1.06866,0.96872 0.95471,4.05392 5.2739,3.30514 6.98977,0.81278"
           style="fill:#350002;fill-opacity:1;stroke:#000000;stroke-width:0.5;stroke-linecap:round;stroke-linejoin:round;stroke-miterlimit:4;stroke-dasharray:none;stroke-opacity:1" />
        <path
           sodipodi:nodetypes="cscc"
           inkscape:connector-curvature="0"
           id="path8929"
           d="m 27.136,144.21932 c 1.78332,-3.90778 10.246634,-4.07071 10.769538,0.84663 0.332426,3.1261 1.33647,4.19651 1.974462,4.06182 -1.217028,3.6748 -9.587339,4.49472 -12.35371,-0.70384"
           style="fill:#350002;fill-opacity:1;stroke:#000000;stroke-width:0.5;stroke-linecap:round;stroke-linejoin:round;stroke-miterlimit:4;stroke-dasharray:none;stroke-opacity:1" />
        <path
           inkscape:connector-curvature="0"
           id="path9538"
           d="m 30.453285,156.132 a 1.5134509,1.5134509 0 0 1 -1.458031,-1.12346 0.30666388,0.30666388 0 1 1 0.59457,-0.15052 v 0 a 0.8969865,0.8969865 0 0 0 1.728974,0 0.30658655,0.30658655 0 0 1 0.593885,0.15258 1.4737673,1.4737673 0 0 1 -0.394784,0.6842 1.4546097,1.4546097 0 0 1 -1.064614,0.4372 z"
           style="display:inline;stroke-width:0.06842003"
           inkscape:export-xdpi="900.39758"
           inkscape:export-ydpi="900.39758" />
        <path
           d="m 40.619179,140.69821 q -0.917488,-0.55558 -1.891352,-0.33189 -1.067522,0.24551 -1.843158,1.38396 -0.775636,-1.13845 -1.850433,-1.38396 a 2.4551197,2.4551197 0 0 0 -1.884986,0.33189 3.2143882,3.2143882 0 0 0 -1.327584,1.58219 3.8599938,3.8599938 0 0 0 -0.190953,2.37328 q 0.481021,2.16869 2.909771,3.47354 a 8.1710021,8.1710021 0 0 0 2.341457,0.87021 8.1710021,8.1710021 0 0 0 2.341457,-0.87021 q 2.429659,-1.30576 2.909771,-3.47354 a 3.8599938,3.8599938 0 0 0 -0.190953,-2.37328 3.273493,3.273493 0 0 0 -1.323037,-1.58219 z"
           id="path10930"
           inkscape:connector-curvature="0"
           style="fill:#ff3286;stroke-width:0.09093036" />
        <path
           d="m 36.88376,149.2293 -0.04183,-0.008 a 8.4419746,8.4419746 0 0 1 -2.406927,-0.89385 c -1.673119,-0.89839 -2.691539,-2.11777 -3.026162,-3.62448 a 4.0864104,4.0864104 0 0 1 0.202774,-2.50968 3.4553537,3.4553537 0 0 1 1.420333,-1.68949 2.6851735,2.6851735 0 0 1 2.052298,-0.36372 c 0.685615,0.1564 1.289392,0.5665 1.799512,1.22029 0.510119,-0.65379 1.112078,-1.06389 1.793146,-1.22029 v 0 c 0.70562,-0.16095 1.398509,-0.04 2.059573,0.36372 a 3.5190049,3.5190049 0 0 1 1.420332,1.68858 4.0918662,4.0918662 0 0 1 0.202775,2.51059 c -0.334624,1.50671 -1.353044,2.72791 -3.026162,3.62448 a 8.4419746,8.4419746 0 0 1 -2.406927,0.89385 z m -2.406927,-8.70022 a 2.2923544,2.2923544 0 0 0 -1.209374,0.36372 3.01616,3.01616 0 0 0 -1.235743,1.4749 3.650854,3.650854 0 0 0 -0.181861,2.23779 c 0.304617,1.37123 1.245746,2.48877 2.797927,3.3226 a 8.074616,8.074616 0 0 0 2.23325,0.83928 8.0618857,8.0618857 0 0 0 2.234159,-0.83928 c 1.552181,-0.83293 2.49331,-1.95137 2.797927,-3.3226 a 3.6372144,3.6372144 0 0 0 -0.181861,-2.23689 3.0807206,3.0807206 0 0 0 -1.235743,-1.4758 c -0.564678,-0.34007 -1.127537,-0.4401 -1.722222,-0.3037 -0.651061,0.14912 -1.225741,0.58377 -1.706762,1.2903 l -0.188226,0.27279 -0.187317,-0.27279 c -0.481021,-0.70653 -1.05752,-1.14118 -1.713128,-1.2903 a 2.2668939,2.2668939 0 0 0 -0.501026,-0.06 z"
           id="path10932"
           inkscape:connector-curvature="0"
           style="stroke-width:0.09093036" />
        <path
           d="m 35.230646,142.65231 a 1.1211713,1.1211713 0 0 0 -0.34008,-0.81838 1.1520877,1.1520877 0 0 0 -0.831103,-0.34008 1.163,1.163 0 0 0 0,2.326 v 0 a 1.1448132,1.1448132 0 0 0 0.831103,-0.34008 1.1229899,1.1229899 0 0 0 0.34008,-0.82746 z"
           id="path10934"
           inkscape:connector-curvature="0"
           style="fill:#ffffff;stroke-width:0.09093036" />
        <path
           style="stroke-width:0.09362254"
           inkscape:connector-curvature="0"
           id="path9042"
           d="m 36.883748,149.36487 -0.04307,-0.008 a 8.6919167,8.6919167 0 0 1 -2.478189,-0.92032 c -1.722655,-0.92499 -2.771228,-2.18047 -3.115758,-3.73179 a 4.207397,4.207397 0 0 1 0.208778,-2.58398 3.5576566,3.5576566 0 0 1 1.462385,-1.73951 2.7646736,2.7646736 0 0 1 2.11306,-0.37449 c 0.705914,0.16103 1.327567,0.58327 1.85279,1.25642 0.525222,-0.67315 1.145004,-1.09539 1.846236,-1.25642 v 0 c 0.726511,-0.16572 1.439915,-0.0412 2.120551,0.37449 a 3.6231923,3.6231923 0 0 1 1.462384,1.73857 4.2130144,4.2130144 0 0 1 0.208779,2.58492 c -0.344532,1.55132 -1.393104,2.80868 -3.115758,3.73179 a 8.6919167,8.6919167 0 0 1 -2.478189,0.92032 z m -2.478189,-8.95781 a 2.3602243,2.3602243 0 0 0 -1.24518,0.37449 3.1054597,3.1054597 0 0 0 -1.272329,1.51857 3.7589451,3.7589451 0 0 0 -0.187246,2.30405 c 0.313636,1.41182 1.282629,2.56245 2.880766,3.42097 a 8.3136817,8.3136817 0 0 0 2.29937,0.86413 8.3005745,8.3005745 0 0 0 2.300306,-0.86413 c 1.598136,-0.85759 2.567129,-2.00915 2.880765,-3.42097 a 3.7449017,3.7449017 0 0 0 -0.187245,-2.30312 3.1719317,3.1719317 0 0 0 -1.27233,-1.5195 c -0.581397,-0.35014 -1.16092,-0.45313 -1.773212,-0.31269 -0.670337,0.15354 -1.262032,0.60106 -1.757294,1.3285 l -0.193799,0.28087 -0.192863,-0.28087 c -0.495263,-0.72744 -1.08883,-1.17496 -1.763849,-1.3285 a 2.33401,2.33401 0 0 0 -0.51586,-0.0618 z" />
      </g>
    </g>
    <g
       id="g8272">
      <g
         id="g8270">
        <path
           sodipodi:nodetypes="cscsc"
           inkscape:connector-curvature="0"
           id="path8216"
           d="m 37.335796,146.20227 c 0.003,0.31003 0.0037,3.31682 4.5e-4,3.63278 -0.04551,4.45283 -0.866662,9.35235 -6.882392,10.66959 -5.812241,-1.28817 -6.80109,-6.10463 -6.87868,-10.5278 -0.006,-0.3495 -0.007,-3.38962 -0.003,-3.73227"
           style="fill:#000000;fill-opacity:1;stroke:#000000;stroke-width:0.5;stroke-linecap:round;stroke-linejoin:round;stroke-miterlimit:4;stroke-dasharray:none;stroke-opacity:1" />
        <circle
           style="opacity:1;fill:#000000;fill-opacity:1;fill-rule:nonzero;stroke:#000000;stroke-width:0.5;stroke-linecap:round;stroke-linejoin:round;stroke-miterlimit:4;stroke-dasharray:none;stroke-dashoffset:0;stroke-opacity:1;paint-order:normal"
           id="circle8218"
           cx="27.78978"
           cy="152.78967"
           r="1.8071986" />
        <circle
           r="1.8071986"
           cy="152.78967"
           cx="33.118469"
           id="circle8220"
           style="opacity:1;fill:#000000;fill-opacity:1;fill-rule:nonzero;stroke:#000000;stroke-width:0.5;stroke-linecap:round;stroke-linejoin:round;stroke-miterlimit:4;stroke-dasharray:none;stroke-dashoffset:0;stroke-opacity:1;paint-order:normal" />
        <path
           sodipodi:nodetypes="cssssccsssscc"
           inkscape:connector-curvature="0"
           id="path8222"
           d="m 36.389783,151.58881 v -2.08561 c 0,-2.90463 -1.559203,-5.24296 -4.463831,-5.24296 H 28.80643 c -2.90463,0 -4.46338,2.33833 -4.46338,5.24296 v 2.0856 l -1.87874,-0.0174 v -3.24579 c 0,-3.37393 2.71614,-6.09007 6.09007,-6.09007 h 3.62355 c 3.37393,0 6.090587,2.71614 6.090587,6.09007 v 3.24579 z"
           style="opacity:1;fill:#000000;fill-opacity:1;fill-rule:nonzero;stroke:#000000;stroke-width:0.5;stroke-linecap:round;stroke-linejoin:round;stroke-miterlimit:4;stroke-dasharray:none;stroke-dashoffset:0;stroke-opacity:1;paint-order:normal" />
        <g
           transform="translate(129.08416,66.894755)"
           id="g8232"
           style="fill:#000000;stroke:#000000">
          <path
             inkscape:connector-curvature="0"
             transform="scale(0.26458333)"
             id="path8224"
             d="m -402.5,315.49023 c -2.01341,0.0862 -3.61719,1.70684 -3.61719,3.74219 v 12.04883 c 0,2.03537 1.60376,3.65799 3.61719,3.74414 z"
             style="opacity:1;fill:#000000;fill-opacity:1;fill-rule:nonzero;stroke:#000000;stroke-width:1.88976383;stroke-linecap:round;stroke-linejoin:round;stroke-miterlimit:4;stroke-dasharray:none;stroke-dashoffset:0;stroke-opacity:1;paint-order:normal" />
          <path
             inkscape:connector-curvature="0"
             transform="scale(0.26458333)"
             id="path8226"
             d="m -402.5,315.49023 v 19.53516 c 0.0549,0.002 0.10074,0.0312 0.15625,0.0312 1.62331,0.0261 3.24919,0.0156 4.88281,0.0156 0.86026,0 1.55274,-0.69244 1.55274,-1.55274 v -16.52734 c 0,-0.86031 -0.69248,-1.55274 -1.55274,-1.55274 -1.60029,-0.002 -3.34137,-0.006 -4.88281,0.0195 -0.0555,0 -0.10132,0.0289 -0.15625,0.0312 z"
             style="opacity:1;fill:#000000;fill-opacity:1;fill-rule:nonzero;stroke:#000000;stroke-width:1.88976383;stroke-linecap:round;stroke-linejoin:round;stroke-miterlimit:4;stroke-dasharray:none;stroke-dashoffset:0;stroke-opacity:1;paint-order:normal" />
          <path
             inkscape:connector-curvature="0"
             transform="scale(0.26458333)"
             id="path8228"
             d="m -343.78516,315.47656 c -0.0303,-7.1e-4 -0.0554,-0.0176 -0.0859,-0.0176 -1.54145,-0.0253 -3.28253,-0.0212 -4.88282,-0.0195 -0.86025,0 -1.55273,0.69243 -1.55273,1.55274 v 16.52734 c 0,0.8603 0.69248,1.55274 1.55273,1.55274 1.63363,0 3.25951,0.0104 4.88282,-0.0156 0.0305,0 0.0556,-0.0169 0.0859,-0.0176 z"
             style="opacity:1;fill:#000000;fill-opacity:1;fill-rule:nonzero;stroke:#000000;stroke-width:1.88976383;stroke-linecap:round;stroke-linejoin:round;stroke-miterlimit:4;stroke-dasharray:none;stroke-dashoffset:0;stroke-opacity:1;paint-order:normal" />
          <path
             inkscape:connector-curvature="0"
             transform="scale(0.26458333)"
             id="path8230"
             d="m -343.78516,315.47656 v 19.5625 c 2.04837,-0.0482 3.68946,-1.69745 3.68946,-3.75781 v -12.04883 c 0,-2.06035 -1.6411,-3.70768 -3.68946,-3.75586 z"
             style="opacity:1;fill:#000000;fill-opacity:1;fill-rule:nonzero;stroke:#000000;stroke-width:1.88976383;stroke-linecap:round;stroke-linejoin:round;stroke-miterlimit:4;stroke-dasharray:none;stroke-dashoffset:0;stroke-opacity:1;paint-order:normal" />
        </g>
        <path
           sodipodi:nodetypes="cscc"
           inkscape:connector-curvature="0"
           id="path8234"
           d="m 27.56662,144.65151 c -0.11196,-0.4027 -4.46737,-1.20985 -5.38278,2.52919 -0.11434,0.467 -1.06866,0.96872 -1.06866,0.96872 0.95471,4.05392 5.2739,3.30514 6.98977,0.81279"
           style="fill:#000000;fill-opacity:1;stroke:#000000;stroke-width:0.5;stroke-linecap:round;stroke-linejoin:round;stroke-miterlimit:4;stroke-dasharray:none;stroke-opacity:1" />
        <path
           sodipodi:nodetypes="cscc"
           inkscape:connector-curvature="0"
           id="path8236"
           d="m 27.136,144.74847 c 1.78332,-3.90778 10.246634,-4.0707 10.769538,0.84663 0.332426,3.1261 1.33647,4.19652 1.974462,4.06182 -1.217028,3.6748 -9.587339,4.49472 -12.35371,-0.70384"
           style="fill:#000000;fill-opacity:1;stroke:#000000;stroke-width:0.5;stroke-linecap:round;stroke-linejoin:round;stroke-miterlimit:4;stroke-dasharray:none;stroke-opacity:1" />
        <path
           style="fill:#000000;stroke:#000000;stroke-width:0.5;stroke-linecap:round;stroke-linejoin:round;stroke-miterlimit:4;stroke-dasharray:none;stroke-opacity:1"
           d="m 27.787073,156.54141 c 0.178181,0.38589 0.55313,0.78741 1.76864,0.78636 h 2.731154"
           id="path8238"
           inkscape:connector-curvature="0"
           sodipodi:nodetypes="ccc" />
        <path
           inkscape:export-ydpi="900.39758"
           inkscape:export-xdpi="900.39758"
           sodipodi:nodetypes="cscsc"
           inkscape:connector-curvature="0"
           id="path8240"
           d="m 37.335788,145.67312 c 0.003,0.31002 0.0037,3.31682 4.5e-4,3.63278 -0.04551,4.45283 -0.866662,9.35235 -6.882391,10.66959 -5.81224,-1.28817 -6.801086,-6.10464 -6.878676,-10.5278 -0.006,-0.3495 -0.007,-3.38962 -0.003,-3.73228"
           style="display:inline;fill:#f7ceb8;fill-opacity:1;stroke:#000000;stroke-width:0.5;stroke-linecap:round;stroke-linejoin:round;stroke-miterlimit:4;stroke-dasharray:none;stroke-opacity:1" />
        <path
           sodipodi:nodetypes="cssssccsssscc"
           inkscape:connector-curvature="0"
           id="path8242"
           d="m 36.389783,151.05965 v -2.08561 c 0,-2.90463 -1.559203,-5.24296 -4.463831,-5.24296 H 28.80643 c -2.90463,0 -4.46338,2.33833 -4.46338,5.24296 v 2.08561 l -1.87874,-0.0174 v -3.2458 c 0,-3.37393 2.71614,-6.09006 6.09007,-6.09006 h 3.62355 c 3.37393,0 6.090587,2.71613 6.090587,6.09006 v 3.2458 z"
           style="opacity:1;fill:#de2d48;fill-opacity:1;fill-rule:nonzero;stroke:#000000;stroke-width:0.5;stroke-linecap:round;stroke-linejoin:round;stroke-miterlimit:4;stroke-dasharray:none;stroke-dashoffset:0;stroke-opacity:1;paint-order:normal" />
        <path
           style="opacity:1;fill:#de2d48;fill-opacity:1;fill-rule:nonzero;stroke:#000000;stroke-width:0.5;stroke-linecap:round;stroke-linejoin:round;stroke-miterlimit:4;stroke-dasharray:none;stroke-dashoffset:0;stroke-opacity:1;paint-order:normal"
           d="m 22.58937,149.83906 c -0.532715,0.0228 -0.957049,0.4516 -0.957049,0.99012 v 3.18792 c 0,0.53852 0.424329,0.96784 0.957049,0.99064 z"
           id="path8244"
           inkscape:connector-curvature="0" />
        <path
           style="opacity:1;fill:#5d5d5d;fill-opacity:1;fill-rule:nonzero;stroke:#000000;stroke-width:0.5;stroke-linecap:round;stroke-linejoin:round;stroke-miterlimit:4;stroke-dasharray:none;stroke-dashoffset:0;stroke-opacity:1;paint-order:normal"
           d="m 22.58937,149.83906 v 5.16868 c 0.01453,5.2e-4 0.02665,0.008 0.04134,0.008 0.429501,0.007 0.859681,0.004 1.29191,0.004 0.22761,0 0.410829,-0.18321 0.410829,-0.41083 v -4.37286 c 0,-0.22762 -0.183219,-0.41083 -0.410829,-0.41083 -0.42341,-5.3e-4 -0.884071,-0.002 -1.29191,0.005 -0.01469,0 -0.02681,0.008 -0.04134,0.008 z"
           id="path8246"
           inkscape:connector-curvature="0" />
        <path
           style="opacity:1;fill:#5d5d5d;fill-opacity:1;fill-rule:nonzero;stroke:#000000;stroke-width:0.5;stroke-linecap:round;stroke-linejoin:round;stroke-miterlimit:4;stroke-dasharray:none;stroke-dashoffset:0;stroke-opacity:1;paint-order:normal"
           d="m 38.124338,149.83544 c -0.008,-1.9e-4 -0.01466,-0.005 -0.02273,-0.005 -0.407842,-0.007 -0.868503,-0.006 -1.291913,-0.005 -0.227608,0 -0.410826,0.18321 -0.410826,0.41083 v 4.37286 c 0,0.22762 0.183218,0.41083 0.410826,0.41083 0.432231,0 0.862412,0.003 1.291913,-0.004 0.0081,0 0.01471,-0.004 0.02273,-0.005 z"
           id="path8248"
           inkscape:connector-curvature="0" />
        <path
           style="opacity:1;fill:#de2d48;fill-opacity:1;fill-rule:nonzero;stroke:#000000;stroke-width:0.5;stroke-linecap:round;stroke-linejoin:round;stroke-miterlimit:4;stroke-dasharray:none;stroke-dashoffset:0;stroke-opacity:1;paint-order:normal"
           d="m 38.124338,149.83544 v 5.17591 c 0.541964,-0.0127 0.976169,-0.44911 0.976169,-0.99425 v -3.18792 c 0,-0.54514 -0.434208,-0.98099 -0.976169,-0.99374 z"
           id="path8250"
           inkscape:connector-curvature="0" />
        <path
           style="fill:#020101;stroke-width:0.07913044"
           inkscape:connector-curvature="0"
           id="path8252"
           d="m 27.721971,150.56495 a 2.0423567,2.0423567 0 0 0 -2.002792,1.638 0.24213915,0.24213915 0 0 0 -0.117904,0.46608 l 3.693018,1.365 a 0.23739132,0.23739132 0 0 0 0.08388,0.015 v 0 a 0.23739132,0.23739132 0 0 0 0.131356,-0.44471 1.9711393,1.9711393 0 0 0 0.255592,-1.001 2.043148,2.043148 0 0 0 -2.043148,-2.0384 z" />
        <path
           style="fill:#020101;stroke-width:0.07913044"
           inkscape:connector-curvature="0"
           id="path8254"
           d="m 35.447467,152.36121 a 0.23739132,0.23739132 0 0 0 -0.260339,-0.15826 2.043148,2.043148 0 0 0 -4.045939,0.4004 1.978261,1.978261 0 0 0 0.255591,1.00179 0.24213915,0.24213915 0 0 0 0.131357,0.44392 0.23739132,0.23739132 0 0 0 0.08388,-0.015 l 3.693018,-1.365 a 0.24134784,0.24134784 0 0 0 0.142434,-0.30782 z" />
        <path
           style="fill:#350002;fill-opacity:1;stroke:#000000;stroke-width:0.5;stroke-linecap:round;stroke-linejoin:round;stroke-miterlimit:4;stroke-dasharray:none;stroke-opacity:1"
           d="m 27.56662,144.12236 c -0.11196,-0.4027 -4.46737,-1.20985 -5.38278,2.52919 -0.11434,0.46699 -1.06866,0.96872 -1.06866,0.96872 0.95471,4.05392 5.2739,3.30514 6.98977,0.81278"
           id="path8256"
           inkscape:connector-curvature="0"
           sodipodi:nodetypes="cscc" />
        <path
           style="fill:#350002;fill-opacity:1;stroke:#000000;stroke-width:0.5;stroke-linecap:round;stroke-linejoin:round;stroke-miterlimit:4;stroke-dasharray:none;stroke-opacity:1"
           d="m 27.136,144.21932 c 1.78332,-3.90778 10.246634,-4.07071 10.769538,0.84663 0.332426,3.1261 1.33647,4.19651 1.974462,4.06182 -1.217028,3.6748 -9.587339,4.49472 -12.35371,-0.70384"
           id="path8258"
           inkscape:connector-curvature="0"
           sodipodi:nodetypes="cscc" />
        <path
           inkscape:export-ydpi="900.39758"
           inkscape:export-xdpi="900.39758"
           style="display:inline;stroke-width:0.06842003"
           d="m 30.453285,156.132 a 1.5134509,1.5134509 0 0 1 -1.458031,-1.12346 0.30666388,0.30666388 0 1 1 0.59457,-0.15052 v 0 a 0.8969865,0.8969865 0 0 0 1.728974,0 0.30658655,0.30658655 0 0 1 0.593885,0.15258 1.4737673,1.4737673 0 0 1 -0.394784,0.6842 1.4546097,1.4546097 0 0 1 -1.064614,0.4372 z"
           id="path8260"
           inkscape:connector-curvature="0" />
        <path
           style="fill:#ff3286;stroke-width:0.09093036"
           inkscape:connector-curvature="0"
           id="path8262"
           d="m 40.619179,140.69821 q -0.917488,-0.55558 -1.891352,-0.33189 -1.067522,0.24551 -1.843158,1.38396 -0.775636,-1.13845 -1.850433,-1.38396 a 2.4551197,2.4551197 0 0 0 -1.884986,0.33189 3.2143882,3.2143882 0 0 0 -1.327584,1.58219 3.8599938,3.8599938 0 0 0 -0.190953,2.37328 q 0.481021,2.16869 2.909771,3.47354 a 8.1710021,8.1710021 0 0 0 2.341457,0.87021 8.1710021,8.1710021 0 0 0 2.341457,-0.87021 q 2.429659,-1.30576 2.909771,-3.47354 a 3.8599938,3.8599938 0 0 0 -0.190953,-2.37328 3.273493,3.273493 0 0 0 -1.323037,-1.58219 z" />
        <path
           style="stroke-width:0.09093036"
           inkscape:connector-curvature="0"
           id="path8264"
           d="m 36.88376,149.2293 -0.04183,-0.008 a 8.4419746,8.4419746 0 0 1 -2.406927,-0.89385 c -1.673119,-0.89839 -2.691539,-2.11777 -3.026162,-3.62448 a 4.0864104,4.0864104 0 0 1 0.202774,-2.50968 3.4553537,3.4553537 0 0 1 1.420333,-1.68949 2.6851735,2.6851735 0 0 1 2.052298,-0.36372 c 0.685615,0.1564 1.289392,0.5665 1.799512,1.22029 0.510119,-0.65379 1.112078,-1.06389 1.793146,-1.22029 v 0 c 0.70562,-0.16095 1.398509,-0.04 2.059573,0.36372 a 3.5190049,3.5190049 0 0 1 1.420332,1.68858 4.0918662,4.0918662 0 0 1 0.202775,2.51059 c -0.334624,1.50671 -1.353044,2.72791 -3.026162,3.62448 a 8.4419746,8.4419746 0 0 1 -2.406927,0.89385 z m -2.406927,-8.70022 a 2.2923544,2.2923544 0 0 0 -1.209374,0.36372 3.01616,3.01616 0 0 0 -1.235743,1.4749 3.650854,3.650854 0 0 0 -0.181861,2.23779 c 0.304617,1.37123 1.245746,2.48877 2.797927,3.3226 a 8.074616,8.074616 0 0 0 2.23325,0.83928 8.0618857,8.0618857 0 0 0 2.234159,-0.83928 c 1.552181,-0.83293 2.49331,-1.95137 2.797927,-3.3226 a 3.6372144,3.6372144 0 0 0 -0.181861,-2.23689 3.0807206,3.0807206 0 0 0 -1.235743,-1.4758 c -0.564678,-0.34007 -1.127537,-0.4401 -1.722222,-0.3037 -0.651061,0.14912 -1.225741,0.58377 -1.706762,1.2903 l -0.188226,0.27279 -0.187317,-0.27279 c -0.481021,-0.70653 -1.05752,-1.14118 -1.713128,-1.2903 a 2.2668939,2.2668939 0 0 0 -0.501026,-0.06 z" />
        <path
           style="fill:#ffffff;stroke-width:0.09093036"
           inkscape:connector-curvature="0"
           id="path8266"
           d="m 35.230646,142.65231 a 1.1211713,1.1211713 0 0 0 -0.34008,-0.81838 1.1520877,1.1520877 0 0 0 -0.831103,-0.34008 1.163,1.163 0 0 0 0,2.326 v 0 a 1.1448132,1.1448132 0 0 0 0.831103,-0.34008 1.1229899,1.1229899 0 0 0 0.34008,-0.82746 z" />
        <path
           d="m 36.883748,149.36487 -0.04307,-0.008 a 8.6919167,8.6919167 0 0 1 -2.478189,-0.92032 c -1.722655,-0.92499 -2.771228,-2.18047 -3.115758,-3.73179 a 4.207397,4.207397 0 0 1 0.208778,-2.58398 3.5576566,3.5576566 0 0 1 1.462385,-1.73951 2.7646736,2.7646736 0 0 1 2.11306,-0.37449 c 0.705914,0.16103 1.327567,0.58327 1.85279,1.25642 0.525222,-0.67315 1.145004,-1.09539 1.846236,-1.25642 v 0 c 0.726511,-0.16572 1.439915,-0.0412 2.120551,0.37449 a 3.6231923,3.6231923 0 0 1 1.462384,1.73857 4.2130144,4.2130144 0 0 1 0.208779,2.58492 c -0.344532,1.55132 -1.393104,2.80868 -3.115758,3.73179 a 8.6919167,8.6919167 0 0 1 -2.478189,0.92032 z m -2.478189,-8.95781 a 2.3602243,2.3602243 0 0 0 -1.24518,0.37449 3.1054597,3.1054597 0 0 0 -1.272329,1.51857 3.7589451,3.7589451 0 0 0 -0.187246,2.30405 c 0.313636,1.41182 1.282629,2.56245 2.880766,3.42097 a 8.3136817,8.3136817 0 0 0 2.29937,0.86413 8.3005745,8.3005745 0 0 0 2.300306,-0.86413 c 1.598136,-0.85759 2.567129,-2.00915 2.880765,-3.42097 a 3.7449017,3.7449017 0 0 0 -0.187245,-2.30312 3.1719317,3.1719317 0 0 0 -1.27233,-1.5195 c -0.581397,-0.35014 -1.16092,-0.45313 -1.773212,-0.31269 -0.670337,0.15354 -1.262032,0.60106 -1.757294,1.3285 l -0.193799,0.28087 -0.192863,-0.28087 c -0.495263,-0.72744 -1.08883,-1.17496 -1.763849,-1.3285 a 2.33401,2.33401 0 0 0 -0.51586,-0.0618 z"
           id="path8268"
           inkscape:connector-curvature="0"
           style="stroke-width:0.09362254" />
      </g>
    </g>
  </g>
</svg>
