<?xml version="1.0" encoding="UTF-8" standalone="no"?>
<!-- Created with Inkscape (http://www.inkscape.org/) -->

<svg
   xmlns:dc="http://purl.org/dc/elements/1.1/"
   xmlns:cc="http://creativecommons.org/ns#"
   xmlns:rdf="http://www.w3.org/1999/02/22-rdf-syntax-ns#"
   xmlns:svg="http://www.w3.org/2000/svg"
   xmlns="http://www.w3.org/2000/svg"
   xmlns:sodipodi="http://sodipodi.sourceforge.net/DTD/sodipodi-0.dtd"
   xmlns:inkscape="http://www.inkscape.org/namespaces/inkscape"
   width="64"
   height="64"
   viewBox="0 0 16.933333 16.933334"
   version="1.1"
   id="svg6669"
   inkscape:version="0.92.0 r15299"
   sodipodi:docname="iconWarning.svg">
  <defs
     id="defs6663" />
  <sodipodi:namedview
     id="base"
     pagecolor="#ffffff"
     bordercolor="#666666"
     borderopacity="1.0"
     inkscape:pageopacity="0.0"
     inkscape:pageshadow="2"
     inkscape:zoom="5.6"
     inkscape:cx="21.809529"
     inkscape:cy="45.569077"
     inkscape:document-units="mm"
     inkscape:current-layer="layer1"
     showgrid="false"
     units="px"
     inkscape:window-width="1920"
     inkscape:window-height="1001"
     inkscape:window-x="-9"
     inkscape:window-y="-9"
     inkscape:window-maximized="1" />
  <metadata
     id="metadata6666">
    <rdf:RDF>
      <cc:Work
         rdf:about="">
        <dc:format>image/svg+xml</dc:format>
        <dc:type
           rdf:resource="http://purl.org/dc/dcmitype/StillImage" />
        <dc:title />
      </cc:Work>
    </rdf:RDF>
  </metadata>
  <g
     inkscape:label="Layer 1"
     inkscape:groupmode="layer"
     id="layer1"
     transform="translate(0,-280.06665)">
    <g
       id="g4699"
       transform="matrix(0.80870467,0,0,0.80870467,-11.669415,48.410955)">
      <g
         inkscape:export-ydpi="900.32355"
         inkscape:export-xdpi="900.32355"
         id="g9080"
         transform="translate(110.93601,212.42914)"
         style="display:inline;fill:#000000;stroke:#000000">
        <path
           style="fill:#000000;fill-opacity:1;stroke:#000000;stroke-width:0.5;stroke-linecap:round;stroke-linejoin:round;stroke-miterlimit:4;stroke-dasharray:none;stroke-opacity:1"
           d="m -79.198624,80.16564 c 0.003,0.310024 0.0037,3.316817 4.5e-4,3.632779 -0.04551,4.45283 -0.866662,9.352348 -6.882392,10.669589 -5.812241,-1.288166 -6.80109,-6.104633 -6.87868,-10.527795 -0.006,-0.3495 -0.007,-3.389624 -0.003,-3.732278"
           id="path9050"
           inkscape:connector-curvature="0"
           sodipodi:nodetypes="cscsc" />
        <g
           transform="translate(12.627244,0.85100021)"
           id="g9056"
           style="fill:#000000;stroke:#000000">
          <circle
             style="opacity:1;fill:#000000;fill-opacity:1;fill-rule:nonzero;stroke:#000000;stroke-width:0.5;stroke-linecap:round;stroke-linejoin:round;stroke-miterlimit:4;stroke-dasharray:none;stroke-dashoffset:0;stroke-opacity:1;paint-order:normal"
             id="circle9052"
             cx="-101.37188"
             cy="85.902039"
             r="1.8071986" />
          <circle
             r="1.8071986"
             cy="85.902039"
             cx="-96.04319"
             id="circle9054"
             style="opacity:1;fill:#000000;fill-opacity:1;fill-rule:nonzero;stroke:#000000;stroke-width:0.5;stroke-linecap:round;stroke-linejoin:round;stroke-miterlimit:4;stroke-dasharray:none;stroke-dashoffset:0;stroke-opacity:1;paint-order:normal" />
        </g>
        <g
           transform="translate(12.549744,0.85812321)"
           id="g9070"
           style="fill:#000000;stroke:#000000">
          <path
             sodipodi:nodetypes="cssssccsssscc"
             inkscape:connector-curvature="0"
             id="path9058"
             d="m -92.694377,84.694052 v -2.085611 c 0,-2.904628 -1.559203,-5.242961 -4.463831,-5.242961 h -3.119522 c -2.90463,0 -4.46338,2.338333 -4.46338,5.242961 v 2.085605 l -1.87874,-0.01741 v -3.245794 c 0,-3.37393 2.71614,-6.090068 6.09007,-6.090068 h 3.62355 c 3.37393,0 6.090587,2.716138 6.090587,6.090068 v 3.245794 z"
             style="opacity:1;fill:#000000;fill-opacity:1;fill-rule:nonzero;stroke:#000000;stroke-width:0.5;stroke-linecap:round;stroke-linejoin:round;stroke-miterlimit:4;stroke-dasharray:none;stroke-dashoffset:0;stroke-opacity:1;paint-order:normal" />
          <g
             id="g9068"
             style="fill:#000000;stroke:#000000">
            <path
               inkscape:connector-curvature="0"
               transform="scale(0.26458333)"
               id="path9060"
               d="m -402.5,315.49023 c -2.01341,0.0862 -3.61719,1.70684 -3.61719,3.74219 v 12.04883 c 0,2.03537 1.60376,3.65799 3.61719,3.74414 z"
               style="opacity:1;fill:#000000;fill-opacity:1;fill-rule:nonzero;stroke:#000000;stroke-width:1.88976383;stroke-linecap:round;stroke-linejoin:round;stroke-miterlimit:4;stroke-dasharray:none;stroke-dashoffset:0;stroke-opacity:1;paint-order:normal" />
            <path
               inkscape:connector-curvature="0"
               transform="scale(0.26458333)"
               id="path9062"
               d="m -402.5,315.49023 v 19.53516 c 0.0549,0.002 0.10074,0.0312 0.15625,0.0312 1.62331,0.0261 3.24919,0.0156 4.88281,0.0156 0.86026,0 1.55274,-0.69244 1.55274,-1.55274 v -16.52734 c 0,-0.86031 -0.69248,-1.55274 -1.55274,-1.55274 -1.60029,-0.002 -3.34137,-0.006 -4.88281,0.0195 -0.0555,0 -0.10132,0.0289 -0.15625,0.0312 z"
               style="opacity:1;fill:#000000;fill-opacity:1;fill-rule:nonzero;stroke:#000000;stroke-width:1.88976383;stroke-linecap:round;stroke-linejoin:round;stroke-miterlimit:4;stroke-dasharray:none;stroke-dashoffset:0;stroke-opacity:1;paint-order:normal" />
            <path
               inkscape:connector-curvature="0"
               transform="scale(0.26458333)"
               id="path9064"
               d="m -343.78516,315.47656 c -0.0303,-7.1e-4 -0.0554,-0.0176 -0.0859,-0.0176 -1.54145,-0.0253 -3.28253,-0.0212 -4.88282,-0.0195 -0.86025,0 -1.55273,0.69243 -1.55273,1.55274 v 16.52734 c 0,0.8603 0.69248,1.55274 1.55273,1.55274 1.63363,0 3.25951,0.0104 4.88282,-0.0156 0.0305,0 0.0556,-0.0169 0.0859,-0.0176 z"
               style="opacity:1;fill:#000000;fill-opacity:1;fill-rule:nonzero;stroke:#000000;stroke-width:1.88976383;stroke-linecap:round;stroke-linejoin:round;stroke-miterlimit:4;stroke-dasharray:none;stroke-dashoffset:0;stroke-opacity:1;paint-order:normal" />
            <path
               inkscape:connector-curvature="0"
               transform="scale(0.26458333)"
               id="path9066"
               d="m -343.78516,315.47656 v 19.5625 c 2.04837,-0.0482 3.68946,-1.69745 3.68946,-3.75781 v -12.04883 c 0,-2.06035 -1.6411,-3.70768 -3.68946,-3.75586 z"
               style="opacity:1;fill:#000000;fill-opacity:1;fill-rule:nonzero;stroke:#000000;stroke-width:1.88976383;stroke-linecap:round;stroke-linejoin:round;stroke-miterlimit:4;stroke-dasharray:none;stroke-dashoffset:0;stroke-opacity:1;paint-order:normal" />
          </g>
        </g>
        <g
           id="g9076"
           transform="translate(12.526124,0.41476121)"
           style="fill:#000000;stroke:#000000">
          <path
             sodipodi:nodetypes="cscc"
             inkscape:connector-curvature="0"
             id="path9072"
             d="m -101.49392,78.200122 c -0.11196,-0.402702 -4.46737,-1.20985 -5.38278,2.529188 -0.11434,0.466995 -1.06866,0.968715 -1.06866,0.968715 0.95471,4.053923 5.2739,3.305143 6.98977,0.812789"
             style="fill:#000000;fill-opacity:1;stroke:#000000;stroke-width:0.5;stroke-linecap:round;stroke-linejoin:round;stroke-miterlimit:4;stroke-dasharray:none;stroke-opacity:1" />
          <path
             sodipodi:nodetypes="cscc"
             inkscape:connector-curvature="0"
             id="path9074"
             d="m -101.92454,78.297078 c 1.78332,-3.907781 10.246634,-4.070703 10.769538,0.84663 0.332426,3.1261 1.33647,4.196516 1.974462,4.061823 -1.217028,3.674801 -9.587339,4.494721 -12.35371,-0.703845"
             style="fill:#000000;fill-opacity:1;stroke:#000000;stroke-width:0.5;stroke-linecap:round;stroke-linejoin:round;stroke-miterlimit:4;stroke-dasharray:none;stroke-opacity:1" />
        </g>
        <path
           sodipodi:nodetypes="ccc"
           inkscape:connector-curvature="0"
           id="path9078"
           d="m -88.747347,90.50478 c 0.178181,0.385892 0.55313,0.787413 1.76864,0.786358 h 2.731154"
           style="fill:#000000;stroke:#000000;stroke-width:0.5;stroke-linecap:round;stroke-linejoin:round;stroke-miterlimit:4;stroke-dasharray:none;stroke-opacity:1" />
      </g>
      <path
         inkscape:export-ydpi="900.32355"
         inkscape:export-xdpi="900.32355"
         sodipodi:nodetypes="cscsc"
         inkscape:connector-curvature="0"
         id="path9082"
         d="m 31.737387,292.06563 c 0.003,0.31002 0.0037,3.31682 4.5e-4,3.63278 -0.04551,4.45283 -0.866662,9.35235 -6.882392,10.66959 -5.81224,-1.28817 -6.80109,-6.10464 -6.87868,-10.5278 -0.006,-0.3495 -0.007,-3.38962 -0.003,-3.73228"
         style="display:inline;fill:#f7ceb8;fill-opacity:1;stroke:#000000;stroke-width:0.5;stroke-linecap:round;stroke-linejoin:round;stroke-miterlimit:4;stroke-dasharray:none;stroke-opacity:1" />
      <g
         inkscape:export-ydpi="900.32355"
         inkscape:export-xdpi="900.32355"
         id="g9102"
         transform="translate(123.48575,212.75811)"
         style="display:inline">
        <path
           style="opacity:1;fill:#de2d48;fill-opacity:1;fill-rule:nonzero;stroke:#000000;stroke-width:0.5;stroke-linecap:round;stroke-linejoin:round;stroke-miterlimit:4;stroke-dasharray:none;stroke-dashoffset:0;stroke-opacity:1;paint-order:normal"
           d="m -92.694377,84.694052 v -2.085611 c 0,-2.904628 -1.559203,-5.242961 -4.463831,-5.242961 h -3.119522 c -2.90463,0 -4.46338,2.338333 -4.46338,5.242961 v 2.085605 l -1.87874,-0.01741 v -3.245794 c 0,-3.37393 2.71614,-6.090068 6.09007,-6.090068 h 3.62355 c 3.37393,0 6.090587,2.716138 6.090587,6.090068 v 3.245794 z"
           id="path9090"
           inkscape:connector-curvature="0"
           sodipodi:nodetypes="cssssccsssscc" />
        <g
           id="g9100">
          <path
             style="opacity:1;fill:#de2d48;fill-opacity:1;fill-rule:nonzero;stroke:#000000;stroke-width:1.88976383;stroke-linecap:round;stroke-linejoin:round;stroke-miterlimit:4;stroke-dasharray:none;stroke-dashoffset:0;stroke-opacity:1;paint-order:normal"
             d="m -402.5,315.49023 c -2.01341,0.0862 -3.61719,1.70684 -3.61719,3.74219 v 12.04883 c 0,2.03537 1.60376,3.65799 3.61719,3.74414 z"
             id="path9092"
             transform="scale(0.26458333)"
             inkscape:connector-curvature="0" />
          <path
             style="opacity:1;fill:#5d5d5d;fill-opacity:1;fill-rule:nonzero;stroke:#000000;stroke-width:1.88976383;stroke-linecap:round;stroke-linejoin:round;stroke-miterlimit:4;stroke-dasharray:none;stroke-dashoffset:0;stroke-opacity:1;paint-order:normal"
             d="m -402.5,315.49023 v 19.53516 c 0.0549,0.002 0.10074,0.0312 0.15625,0.0312 1.62331,0.0261 3.24919,0.0156 4.88281,0.0156 0.86026,0 1.55274,-0.69244 1.55274,-1.55274 v -16.52734 c 0,-0.86031 -0.69248,-1.55274 -1.55274,-1.55274 -1.60029,-0.002 -3.34137,-0.006 -4.88281,0.0195 -0.0555,0 -0.10132,0.0289 -0.15625,0.0312 z"
             id="path9094"
             transform="scale(0.26458333)"
             inkscape:connector-curvature="0" />
          <path
             style="opacity:1;fill:#5d5d5d;fill-opacity:1;fill-rule:nonzero;stroke:#000000;stroke-width:1.88976383;stroke-linecap:round;stroke-linejoin:round;stroke-miterlimit:4;stroke-dasharray:none;stroke-dashoffset:0;stroke-opacity:1;paint-order:normal"
             d="m -343.78516,315.47656 c -0.0303,-7.1e-4 -0.0554,-0.0176 -0.0859,-0.0176 -1.54145,-0.0253 -3.28253,-0.0212 -4.88282,-0.0195 -0.86025,0 -1.55273,0.69243 -1.55273,1.55274 v 16.52734 c 0,0.8603 0.69248,1.55274 1.55273,1.55274 1.63363,0 3.25951,0.0104 4.88282,-0.0156 0.0305,0 0.0556,-0.0169 0.0859,-0.0176 z"
             id="path9096"
             transform="scale(0.26458333)"
             inkscape:connector-curvature="0" />
          <path
             style="opacity:1;fill:#de2d48;fill-opacity:1;fill-rule:nonzero;stroke:#000000;stroke-width:1.88976383;stroke-linecap:round;stroke-linejoin:round;stroke-miterlimit:4;stroke-dasharray:none;stroke-dashoffset:0;stroke-opacity:1;paint-order:normal"
             d="m -343.78516,315.47656 v 19.5625 c 2.04837,-0.0482 3.68946,-1.69745 3.68946,-3.75781 v -12.04883 c 0,-2.06035 -1.6411,-3.70768 -3.68946,-3.75586 z"
             id="path9098"
             transform="scale(0.26458333)"
             inkscape:connector-curvature="0" />
        </g>
      </g>
      <circle
         inkscape:export-ydpi="900.32355"
         inkscape:export-xdpi="900.32355"
         style="display:inline;opacity:1;fill:#000000;fill-opacity:1;fill-rule:nonzero;stroke:none;stroke-width:0.58823532;stroke-linecap:round;stroke-linejoin:round;stroke-miterlimit:4;stroke-dasharray:none;stroke-dashoffset:0;stroke-opacity:1;paint-order:normal"
         id="circle9084"
         cx="22.278221"
         cy="299.36176"
         r="2.126116" />
      <circle
         inkscape:export-ydpi="900.32355"
         inkscape:export-xdpi="900.32355"
         r="2.126116"
         cy="299.36176"
         cx="27.433037"
         id="circle9116"
         style="display:inline;opacity:1;fill:#000000;fill-opacity:1;fill-rule:nonzero;stroke:none;stroke-width:0.58823532;stroke-linecap:round;stroke-linejoin:round;stroke-miterlimit:4;stroke-dasharray:none;stroke-dashoffset:0;stroke-opacity:1;paint-order:normal" />
      <g
         inkscape:export-ydpi="900.32355"
         inkscape:export-xdpi="900.32355"
         id="g9110"
         transform="translate(123.46213,212.31475)"
         style="display:inline">
        <g
           id="g9108">
          <path
             style="fill:#350002;fill-opacity:1;stroke:#000000;stroke-width:0.5;stroke-linecap:round;stroke-linejoin:round;stroke-miterlimit:4;stroke-dasharray:none;stroke-opacity:1"
             d="m -101.49392,78.200122 c -0.11196,-0.402702 -4.46737,-1.20985 -5.38278,2.529188 -0.11434,0.466995 -1.06866,0.968715 -1.06866,0.968715 0.95471,4.053923 5.2739,3.305143 6.98977,0.812789"
             id="path9104"
             inkscape:connector-curvature="0"
             sodipodi:nodetypes="cscc" />
          <path
             style="fill:#350002;fill-opacity:1;stroke:#000000;stroke-width:0.5;stroke-linecap:round;stroke-linejoin:round;stroke-miterlimit:4;stroke-dasharray:none;stroke-opacity:1"
             d="m -101.92454,78.297078 c 1.78332,-3.907781 10.246634,-4.070703 10.769538,0.84663 0.332426,3.1261 1.33647,4.196516 1.974462,4.061823 -1.217028,3.674801 -9.587339,4.494721 -12.35371,-0.703845"
             id="path9106"
             inkscape:connector-curvature="0"
             sodipodi:nodetypes="cscc" />
        </g>
      </g>
      <g
         inkscape:export-ydpi="900.32355"
         inkscape:export-xdpi="900.32355"
         id="_Group_4"
         data-name="&lt;Group&gt;"
         transform="matrix(0.06403334,0,0,0.06403334,-27.00662,140.09348)"
         style="display:inline">
        <path
           d="m 817.85,2525.7 a 20.42,20.42 0 0 0 -2.32,-10.11 c -1.55,-2.81 -3.39,-4.22 -5.54,-4.21 -2.15,0.01 -4,1.41 -5.62,4.21 a 20.33,20.33 0 0 0 -2.37,10.11 20.81,20.81 0 0 0 2.33,10.18 q 2.29,4.14 5.62,4.14 3.33,0 5.54,-4.14 a 20.83,20.83 0 0 0 2.36,-10.18 z"
           transform="translate(0,10)"
           id="path9562"
           inkscape:connector-curvature="0" />
      </g>
      <g
         inkscape:export-ydpi="900.32355"
         inkscape:export-xdpi="900.32355"
         id="g9173"
         style="display:inline"
         transform="translate(93.55157,165.61845)">
        <path
           d="m -59.763489,127.31615 q 0,-1.27013 -1.847059,-3.54841 -0.576194,-0.71528 -1.2716,-1.44454 l -0.575458,-0.58281 -0.577666,0.58281 q -0.695407,0.72853 -1.264242,1.44454 -1.84853,2.27681 -1.84853,3.54841 a 3.6926577,3.6926577 0 1 0 7.384555,0.10597 q 0,-0.053 0,-0.10597 m -6.343285,-1.40332 a 1.1258962,1.1258962 0 0 1 1.920646,0.79475 1.1266321,1.1266321 0 1 1 -1.920646,-0.79475 z"
           id="path11112"
           inkscape:connector-curvature="0"
           style="fill:#00efff;stroke-width:0.07358799" />
        <path
           d="m -65.312024,125.58168 a 1.1258962,1.1258962 0 1 0 1.125896,1.1259 1.1303115,1.1303115 0 0 0 -1.125896,-1.1259 z"
           id="path11114"
           inkscape:connector-curvature="0"
           style="fill:#ffffff;stroke-width:0.07358799" />
        <path
           d="m -63.458342,131.23324 a 3.9067864,3.9067864 0 0 1 -3.910466,-3.90016 v -0.014 c 0,-0.90807 0.620347,-2.11418 1.897834,-3.68749 0.379714,-0.47832 0.809468,-0.96915 1.276016,-1.45778 l 0.73588,-0.74471 0.73588,0.7425 c 0.468755,0.49084 0.900717,0.98093 1.286318,1.46073 1.276016,1.57257 1.895626,2.77868 1.895626,3.68675 a 3.9053146,3.9053146 0 0 1 -3.892068,3.91709 h -0.02502 z m 0,-9.17863 -0.420188,0.4246 c -0.454774,0.47538 -0.874961,0.95665 -1.250996,1.42614 -1.195804,1.47176 -1.800698,2.61973 -1.800698,3.4108 a 3.4659943,3.4659943 0 0 0 3.458636,3.47556 h 0.01251 c 0.972097,0 1.77715,-0.33188 2.460046,-1.01551 a 3.3335359,3.3335359 0 0 0 1.013307,-2.46005 c 0,-0.79107 -0.604157,-1.93831 -1.797019,-3.40933 -0.378978,-0.47096 -0.802845,-0.95149 -1.259826,-1.43055 z"
           id="path11116"
           inkscape:connector-curvature="0"
           style="fill:#020101;stroke-width:0.07358799" />
        <path
           style="fill:#020101;stroke-width:0.0750921"
           inkscape:connector-curvature="0"
           id="path9167"
           d="m -63.45841,131.33341 a 3.9866394,3.9866394 0 0 1 -3.990394,-3.97988 v -0.0143 c 0,-0.92663 0.633027,-2.15739 1.936625,-3.76286 0.387475,-0.48809 0.826013,-0.98896 1.302097,-1.48757 l 0.750921,-0.75994 0.750921,0.75768 c 0.478336,0.50087 0.919127,1.00098 1.31261,1.49059 1.302097,1.60471 1.934372,2.83547 1.934372,3.7621 a 3.9851375,3.9851375 0 0 1 -3.97162,3.99716 h -0.02553 z m 0,-9.36624 -0.428776,0.43328 c -0.46407,0.48509 -0.892845,0.9762 -1.276566,1.45529 -1.220246,1.50184 -1.837504,2.67327 -1.837504,3.48051 a 3.5368377,3.5368377 0 0 0 3.529329,3.5466 h 0.01277 c 0.991966,0 1.813474,-0.33866 2.510328,-1.03627 a 3.4016719,3.4016719 0 0 0 1.034019,-2.51033 c 0,-0.80724 -0.616506,-1.97793 -1.833749,-3.47901 -0.386725,-0.48059 -0.819255,-0.97094 -1.285577,-1.45979 z" />
      </g>
    </g>
  </g>
</svg>
