<?xml version="1.0" encoding="UTF-8" standalone="no"?>
<!-- Uploaded to: SVG Repo, www.svgrepo.com, Generator: SVG Repo Mixer Tools -->

<svg
   fill="#000000"
   width="800px"
   height="800px"
   viewBox="0 0 32 32"
   version="1.1"
   id="svg6"
   sodipodi:docname="youtube.svg"
   inkscape:version="1.3.2 (091e20e, 2023-11-25, custom)"
   xmlns:inkscape="http://www.inkscape.org/namespaces/inkscape"
   xmlns:sodipodi="http://sodipodi.sourceforge.net/DTD/sodipodi-0.dtd"
   xmlns="http://www.w3.org/2000/svg"
   xmlns:svg="http://www.w3.org/2000/svg"
   xmlns:rdf="http://www.w3.org/1999/02/22-rdf-syntax-ns#"
   xmlns:cc="http://creativecommons.org/ns#"
   xmlns:dc="http://purl.org/dc/elements/1.1/">
  <metadata
     id="metadata12">
    <rdf:RDF>
      <cc:Work
         rdf:about="">
        <dc:format>image/svg+xml</dc:format>
        <dc:type
           rdf:resource="http://purl.org/dc/dcmitype/StillImage" />
        <dc:title>youtube</dc:title>
      </cc:Work>
    </rdf:RDF>
  </metadata>
  <defs
     id="defs10" />
  <sodipodi:namedview
     pagecolor="#ffffff"
     bordercolor="#666666"
     borderopacity="1"
     objecttolerance="10"
     gridtolerance="10"
     guidetolerance="10"
     inkscape:pageopacity="0"
     inkscape:pageshadow="2"
     inkscape:window-width="1920"
     inkscape:window-height="991"
     id="namedview8"
     showgrid="false"
     inkscape:zoom="0.295"
     inkscape:cx="-198.30508"
     inkscape:cy="401.69492"
     inkscape:window-x="-9"
     inkscape:window-y="-9"
     inkscape:window-maximized="1"
     inkscape:current-layer="svg6"
     inkscape:showpageshadow="0"
     inkscape:pagecheckerboard="1"
     inkscape:deskcolor="#505050" />
  <title
     id="title2">youtube</title>
  <path
     d="M12.932 20.459v-8.917l7.839 4.459zM30.368 8.735c-0.354-1.301-1.354-2.307-2.625-2.663l-0.027-0.006c-3.193-0.406-6.886-0.638-10.634-0.638-0.381 0-0.761 0.002-1.14 0.007l0.058-0.001c-0.322-0.004-0.701-0.007-1.082-0.007-3.748 0-7.443 0.232-11.070 0.681l0.434-0.044c-1.297 0.363-2.297 1.368-2.644 2.643l-0.006 0.026c-0.4 2.109-0.628 4.536-0.628 7.016 0 0.088 0 0.176 0.001 0.263l-0-0.014c-0 0.074-0.001 0.162-0.001 0.25 0 2.48 0.229 4.906 0.666 7.259l-0.038-0.244c0.354 1.301 1.354 2.307 2.625 2.663l0.027 0.006c3.193 0.406 6.886 0.638 10.634 0.638 0.38 0 0.76-0.002 1.14-0.007l-0.058 0.001c0.322 0.004 0.702 0.007 1.082 0.007 3.749 0 7.443-0.232 11.070-0.681l-0.434 0.044c1.298-0.362 2.298-1.368 2.646-2.643l0.006-0.026c0.399-2.109 0.627-4.536 0.627-7.015 0-0.088-0-0.176-0.001-0.263l0 0.013c0-0.074 0.001-0.162 0.001-0.25 0-2.48-0.229-4.906-0.666-7.259l0.038 0.244z"
     id="path4"
     style="fill:#000000" />
</svg>
